<svg width="75" height="18" viewBox="0 0 75 18" fill="none" xmlns="http://www.w3.org/2000/svg">
<path fill-rule="evenodd" clip-rule="evenodd" d="M27.9226 4.02551H23.7902C23.5074 4.02551 23.2669 4.22831 23.2228 4.50387L21.5515 14.964C21.5182 15.1704 21.6802 15.3565 21.8922 15.3565H23.8651C24.1479 15.3565 24.3884 15.1537 24.4325 14.8775L24.8832 12.0563C24.9267 11.7801 25.1678 11.5773 25.45 11.5773H26.7582C29.4803 11.5773 31.0513 10.277 31.4616 7.70031C31.6465 6.573 31.4695 5.68725 30.9347 5.06693C30.3474 4.38578 29.3057 4.02551 27.9226 4.02551ZM28.3993 7.84585C28.1733 9.30956 27.0404 9.30956 25.9449 9.30956H25.3213L25.7588 6.57598C25.7848 6.41076 25.9298 6.28908 26.099 6.28908H26.3848C27.131 6.28908 27.835 6.28908 28.1987 6.70899C28.4156 6.9595 28.4821 7.3317 28.3993 7.84585Z" fill="#253B80"/>
<path fill-rule="evenodd" clip-rule="evenodd" d="M40.2751 7.7987H38.2962C38.1276 7.7987 37.982 7.92038 37.956 8.0856L37.8684 8.63196L37.7301 8.43393C37.3016 7.82017 36.3463 7.61499 35.3928 7.61499C33.2061 7.61499 31.3384 9.24989 30.9746 11.5433C30.7855 12.6873 31.0544 13.7812 31.7118 14.5441C32.3148 15.2455 33.1777 15.5378 34.2043 15.5378C35.9663 15.5378 36.9433 14.4194 36.9433 14.4194L36.8551 14.9622C36.8219 15.1698 36.9838 15.3559 37.1947 15.3559H38.9772C39.2606 15.3559 39.4999 15.1531 39.5446 14.8769L40.6141 8.19117C40.6479 7.98539 40.4866 7.7987 40.2751 7.7987ZM37.5168 11.6005C37.3258 12.7165 36.4285 13.4657 35.2841 13.4657C34.7095 13.4657 34.2502 13.2838 33.9554 12.939C33.6629 12.5966 33.5517 12.1093 33.6448 11.5665C33.823 10.4601 34.7354 9.6865 35.8623 9.6865C36.4243 9.6865 36.8811 9.87081 37.182 10.2185C37.4835 10.5699 37.6032 11.0601 37.5168 11.6005Z" fill="#253B80"/>
<path fill-rule="evenodd" clip-rule="evenodd" d="M50.8142 7.79877H48.8257C48.636 7.79877 48.4577 7.89182 48.3502 8.04749L45.6075 12.0354L44.4449 8.20317C44.3718 7.96339 44.1477 7.79877 43.8939 7.79877H41.9398C41.7023 7.79877 41.5373 8.02781 41.6129 8.2485L43.8032 14.5937L41.744 17.4632C41.582 17.6893 41.7452 18 42.025 18H44.0111C44.1996 18 44.3761 17.9094 44.483 17.7567L51.097 8.3326C51.2553 8.10714 51.0928 7.79877 50.8142 7.79877Z" fill="#253B80"/>
<path fill-rule="evenodd" clip-rule="evenodd" d="M57.3981 4.02551H53.2651C52.9829 4.02551 52.7424 4.22831 52.6983 4.50387L51.027 14.964C50.9937 15.1704 51.1557 15.3565 51.3665 15.3565H53.4874C53.6844 15.3565 53.853 15.2145 53.8838 15.0213L54.3581 12.0563C54.4016 11.7801 54.6427 11.5773 54.9249 11.5773H56.2325C58.9552 11.5773 60.5256 10.277 60.9365 7.70031C61.122 6.573 60.9438 5.68725 60.409 5.06693C59.8223 4.38578 58.7812 4.02551 57.3981 4.02551ZM57.8748 7.84585C57.6494 9.30956 56.5165 9.30956 55.4204 9.30956H54.7974L55.2355 6.57598C55.2615 6.41076 55.4053 6.28908 55.5751 6.28908H55.8609C56.6065 6.28908 57.3111 6.28908 57.6748 6.70899C57.8917 6.9595 57.9576 7.3317 57.8748 7.84585Z" fill="#179BD7"/>
<path fill-rule="evenodd" clip-rule="evenodd" d="M69.7499 7.7987H67.7723C67.6025 7.7987 67.4581 7.92038 67.4327 8.0856L67.3451 8.63196L67.2061 8.43393C66.7777 7.82017 65.823 7.61499 64.8695 7.61499C62.6827 7.61499 60.8156 9.24989 60.4519 11.5433C60.2634 12.6873 60.531 13.7812 61.1885 14.5441C61.7927 15.2455 62.6543 15.5378 63.6809 15.5378C65.4429 15.5378 66.42 14.4194 66.42 14.4194L66.3318 14.9622C66.2985 15.1698 66.4605 15.3559 66.6725 15.3559H68.4545C68.7366 15.3559 68.9771 15.1531 69.0212 14.8769L70.0913 8.19117C70.124 7.98539 69.962 7.7987 69.7499 7.7987ZM66.9916 11.6005C66.8019 12.7165 65.9033 13.4657 64.7589 13.4657C64.1855 13.4657 63.7251 13.2838 63.4302 12.939C63.1377 12.5966 63.0278 12.1093 63.1196 11.5665C63.2991 10.4601 64.2103 9.6865 65.3372 9.6865C65.8991 9.6865 66.3559 9.87081 66.6568 10.2185C66.9596 10.5699 67.0792 11.0601 66.9916 11.6005Z" fill="#179BD7"/>
<path fill-rule="evenodd" clip-rule="evenodd" d="M72.083 4.31246L70.3868 14.9641C70.3536 15.1704 70.5155 15.3565 70.7264 15.3565H72.4316C72.715 15.3565 72.9555 15.1537 72.999 14.8776L74.6715 4.41803C74.7048 4.21166 74.5428 4.02496 74.3319 4.02496H72.4225C72.2539 4.02556 72.1089 4.14724 72.083 4.31246Z" fill="#179BD7"/>
<path fill-rule="evenodd" clip-rule="evenodd" d="M4.3904 17.3892L4.70642 15.4078L4.00248 15.3917H0.641083L2.97708 0.77063C2.98433 0.726492 3.0079 0.685336 3.04234 0.65611C3.07678 0.626883 3.12089 0.610779 3.16681 0.610779H8.8346C10.7162 0.610779 12.0147 0.997286 12.6927 1.76016C13.0105 2.11804 13.2129 2.49202 13.3108 2.90358C13.4135 3.33541 13.4153 3.85135 13.315 4.48062L13.3078 4.52655V4.92975L13.6256 5.1075C13.8933 5.24767 14.106 5.40812 14.2691 5.59183C14.5411 5.89781 14.7169 6.2867 14.7912 6.74777C14.8679 7.22195 14.8426 7.7862 14.7169 8.42501C14.5719 9.15985 14.3374 9.79986 14.0208 10.3236C13.7296 10.8061 13.3586 11.2063 12.9181 11.5165C12.4975 11.8111 11.9978 12.0348 11.4328 12.1779C10.8854 12.3187 10.2612 12.3897 9.5766 12.3897H9.13551C8.82009 12.3897 8.51374 12.5018 8.27326 12.7028C8.03216 12.908 7.87264 13.1884 7.8237 13.4949L7.79047 13.6733L7.23215 17.1656L7.20677 17.2938C7.20012 17.3344 7.18864 17.3546 7.17172 17.3684C7.15662 17.3809 7.13486 17.3892 7.11372 17.3892H4.3904Z" fill="#253B80"/>
<path fill-rule="evenodd" clip-rule="evenodd" d="M13.9265 4.57312C13.9096 4.67989 13.8903 4.78904 13.8685 4.90117C13.1211 8.6893 10.5639 9.99793 7.29801 9.99793H5.63513C5.23573 9.99793 4.89917 10.2842 4.83693 10.6731L3.98556 16.0031L3.74446 17.5139C3.70398 17.7692 3.90338 17.9995 4.16441 17.9995H7.11371C7.46297 17.9995 7.75965 17.7489 7.81463 17.409L7.84364 17.261L8.39893 13.7825L8.43458 13.5916C8.48897 13.2504 8.78625 12.9999 9.1355 12.9999H9.5766C12.4341 12.9999 14.671 11.8547 15.3247 8.54078C15.5979 7.15639 15.4565 6.00045 14.7338 5.18747C14.5151 4.94233 14.2438 4.73894 13.9265 4.57312Z" fill="#179BD7"/>
<path fill-rule="evenodd" clip-rule="evenodd" d="M13.1446 4.26532C13.0304 4.23251 12.9126 4.20269 12.7918 4.17585C12.6703 4.1496 12.5458 4.12634 12.4177 4.10606C11.9694 4.03449 11.4781 4.00049 10.9518 4.00049H6.50945C6.40009 4.00049 6.29616 4.02494 6.2031 4.06908C5.99827 4.1663 5.846 4.35777 5.80914 4.59218L4.86411 10.5007L4.83691 10.6731C4.89915 10.2842 5.23571 9.9979 5.63512 9.9979H7.29799C10.5639 9.9979 13.1211 8.68867 13.8685 4.90114C13.8909 4.78901 13.9096 4.67986 13.9265 4.57309C13.7374 4.47408 13.5326 4.38938 13.312 4.31721C13.2576 4.29932 13.2014 4.28202 13.1446 4.26532Z" fill="#222D65"/>
<path fill-rule="evenodd" clip-rule="evenodd" d="M5.80917 4.59215C5.84603 4.35774 5.9983 4.16628 6.20313 4.06965C6.29679 4.02552 6.40012 4.00106 6.50948 4.00106H10.9519C11.4782 4.00106 11.9694 4.03506 12.4178 4.10663C12.5459 4.12691 12.6703 4.15018 12.7918 4.17642C12.9126 4.20326 13.0305 4.23308 13.1447 4.26589C13.2015 4.28259 13.2577 4.29989 13.3126 4.31718C13.5332 4.38936 13.738 4.47465 13.9272 4.57307C14.1495 3.17317 13.9253 2.22003 13.1586 1.35695C12.3132 0.406786 10.7875 0 8.83521 0H3.16743C2.76863 0 2.42844 0.286301 2.36681 0.67579L0.00603566 15.4471C-0.0404909 15.7394 0.187912 16.003 0.486407 16.003H3.98557L4.86414 10.5007L5.80917 4.59215Z" fill="#253B80"/>
</svg>
