<svg width="30" height="23" viewBox="0 0 30 23" fill="none" xmlns="http://www.w3.org/2000/svg">
<path fill-rule="evenodd" clip-rule="evenodd" d="M29.1692 22.6881V22.7477H29.2241C29.2372 22.7477 29.2474 22.7452 29.2548 22.7404C29.2622 22.7355 29.266 22.7279 29.266 22.7175C29.266 22.7076 29.2622 22.7003 29.2548 22.6954C29.2474 22.6906 29.2372 22.6881 29.2241 22.6881H29.1692ZM29.2251 22.6462C29.254 22.6462 29.2762 22.6525 29.2918 22.6652C29.3077 22.6782 29.3156 22.6954 29.3156 22.7175C29.3156 22.736 29.3089 22.7515 29.2967 22.7635C29.2842 22.7754 29.2665 22.7827 29.2435 22.7855L29.3174 22.8701H29.2594L29.1912 22.786H29.1692V22.8701H29.1207V22.6462H29.2251ZM29.2108 22.947C29.2369 22.947 29.2614 22.9419 29.2836 22.9322C29.3066 22.9223 29.3261 22.9089 29.3434 22.8919C29.3605 22.8751 29.3738 22.8551 29.3833 22.8322C29.3932 22.8094 29.3981 22.785 29.3981 22.7589C29.3981 22.733 29.3932 22.7086 29.3833 22.6858C29.3738 22.6629 29.3605 22.6429 29.3434 22.6259C29.3261 22.6091 29.3066 22.5957 29.2836 22.586C29.2614 22.5764 29.2369 22.5716 29.2108 22.5716C29.1843 22.5716 29.1592 22.5764 29.136 22.586C29.113 22.5957 29.0926 22.6091 29.0754 22.6259C29.0588 22.6429 29.0453 22.6629 29.0353 22.6858C29.0259 22.7086 29.021 22.733 29.021 22.7589C29.021 22.785 29.0259 22.8094 29.0353 22.8322C29.0453 22.8551 29.0588 22.8751 29.0754 22.8919C29.0926 22.9089 29.113 22.9223 29.136 22.9322C29.1592 22.9419 29.1843 22.947 29.2108 22.947ZM29.2108 22.5178C29.2446 22.5178 29.277 22.5241 29.3069 22.5368C29.3368 22.5492 29.3628 22.5665 29.3853 22.5886C29.4078 22.6104 29.4254 22.636 29.4385 22.6652C29.451 22.6947 29.4576 22.7259 29.4576 22.7589C29.4576 22.7921 29.451 22.8231 29.4385 22.8523C29.4254 22.8815 29.4078 22.9071 29.3853 22.9289C29.3628 22.9508 29.3368 22.968 29.3069 22.981C29.277 22.9937 29.2446 23 29.2108 23C29.1758 23 29.1431 22.9937 29.113 22.981C29.0826 22.968 29.0563 22.9508 29.0341 22.9289C29.0116 22.9071 28.9945 22.8815 28.9814 22.8523C28.9687 22.8231 28.962 22.7921 28.962 22.7589C28.962 22.7259 28.9687 22.6947 28.9814 22.6652C28.9945 22.636 29.0116 22.6104 29.0341 22.5886C29.0563 22.5665 29.0826 22.5492 29.113 22.5368C29.1431 22.5241 29.1758 22.5178 29.2108 22.5178ZM6.42956 21.6563C6.42956 21.2302 6.71057 20.8799 7.17041 20.8799C7.6098 20.8799 7.90589 21.2149 7.90589 21.6563C7.90589 22.098 7.6098 22.433 7.17041 22.433C6.71057 22.433 6.42956 22.0827 6.42956 21.6563ZM8.4066 21.6563V20.4433H7.87523V20.7378C7.70688 20.5195 7.45142 20.3824 7.10399 20.3824C6.41934 20.3824 5.88312 20.9154 5.88312 21.6563C5.88312 22.3975 6.41934 22.9305 7.10399 22.9305C7.45142 22.9305 7.70688 22.7934 7.87523 22.5751V22.8696H8.4066V21.6563ZM26.3481 21.6563C26.3481 21.2302 26.6291 20.8799 27.089 20.8799C27.5281 20.8799 27.8244 21.2149 27.8244 21.6563C27.8244 22.098 27.5281 22.433 27.089 22.433C26.6291 22.433 26.3481 22.0827 26.3481 21.6563ZM28.3251 21.6563V19.4689H27.7938V20.7378C27.6252 20.5195 27.3697 20.3824 27.0225 20.3824C26.3379 20.3824 25.8014 20.9154 25.8014 21.6563C25.8014 22.3975 26.3379 22.9305 27.0225 22.9305C27.3697 22.9305 27.6252 22.7934 27.7938 22.5751V22.8696H28.3251V21.6563ZM14.9968 20.8545C15.3391 20.8545 15.5586 21.0677 15.6148 21.4434H14.3479C14.4041 21.0931 14.6187 20.8545 14.9968 20.8545ZM15.007 20.3824C14.2917 20.3824 13.791 20.9002 13.791 21.6563C13.791 22.4279 14.3122 22.9305 15.0428 22.9305C15.4107 22.9305 15.7476 22.8388 16.044 22.5904L15.7834 22.1995C15.579 22.3619 15.3187 22.4533 15.0734 22.4533C14.7311 22.4533 14.4195 22.2959 14.3428 21.8594H16.1564C16.1615 21.7934 16.1666 21.7274 16.1666 21.6563C16.1615 20.9002 15.6914 20.3824 15.007 20.3824ZM21.4182 21.6563C21.4182 21.2302 21.6992 20.8799 22.159 20.8799C22.5984 20.8799 22.8947 21.2149 22.8947 21.6563C22.8947 22.098 22.5984 22.433 22.159 22.433C21.6992 22.433 21.4182 22.0827 21.4182 21.6563ZM23.3955 21.6563V20.4433H22.8641V20.7378C22.6955 20.5195 22.44 20.3824 22.0926 20.3824C21.4079 20.3824 20.8717 20.9154 20.8717 21.6563C20.8717 22.3975 21.4079 22.9305 22.0926 22.9305C22.44 22.9305 22.6955 22.7934 22.8641 22.5751V22.8696H23.3955V21.6563ZM18.4195 21.6563C18.4195 22.3924 18.9356 22.9305 19.7221 22.9305C20.09 22.9305 20.3352 22.8492 20.6009 22.6411L20.3455 22.2147C20.1462 22.3568 19.9367 22.433 19.7068 22.433C19.2827 22.4279 18.9713 22.1233 18.9713 21.6563C18.9713 21.1895 19.2827 20.885 19.7068 20.8799C19.9367 20.8799 20.1462 20.956 20.3455 21.0982L20.6009 20.6718C20.3352 20.4636 20.09 20.3824 19.7221 20.3824C18.9356 20.3824 18.4195 20.9205 18.4195 21.6563ZM25.2652 20.3824C24.9586 20.3824 24.7594 20.5246 24.6214 20.7378V20.4433H24.0952V22.8696H24.6265V21.5094C24.6265 21.1083 24.8002 20.885 25.1477 20.885C25.255 20.885 25.3674 20.9002 25.4798 20.9459L25.6433 20.4484C25.5255 20.4027 25.3722 20.3824 25.2652 20.3824ZM11.0325 20.6362C10.7771 20.4687 10.4245 20.3824 10.0362 20.3824C9.41824 20.3824 9.01971 20.6768 9.01971 21.1591C9.01971 21.5548 9.31605 21.7985 9.86249 21.8746L10.1128 21.9101C10.4041 21.9507 10.542 22.0269 10.542 22.1639C10.542 22.3518 10.3479 22.4584 9.98511 22.4584C9.6175 22.4584 9.35181 22.3416 9.17299 22.2046L8.92264 22.6157C9.21386 22.8287 9.58173 22.9305 9.98 22.9305C10.6851 22.9305 11.0938 22.6005 11.0938 22.1386C11.0938 21.7122 10.7719 21.4891 10.2406 21.4129L9.99022 21.3774C9.7603 21.3469 9.57662 21.3012 9.57662 21.1388C9.57662 20.9611 9.75008 20.8545 10.0413 20.8545C10.353 20.8545 10.6544 20.9713 10.8026 21.0626L11.0325 20.6362ZM17.883 20.3824C17.5765 20.3824 17.3772 20.5246 17.2395 20.7378V20.4433H16.7133V22.8696H17.2444V21.5094C17.2444 21.1083 17.4181 20.885 17.7655 20.885C17.8728 20.885 17.9852 20.9002 18.0976 20.9459L18.2611 20.4484C18.1436 20.4027 17.9903 20.3824 17.883 20.3824ZM13.3519 20.4433H12.4833V19.7075H11.9468V20.4433H11.4515V20.9256H11.9468V22.032C11.9468 22.5954 12.1665 22.9305 12.795 22.9305C13.0249 22.9305 13.2906 22.8591 13.4589 22.7426L13.3059 22.2909C13.1475 22.3822 12.9738 22.4279 12.8358 22.4279C12.5702 22.4279 12.4833 22.2655 12.4833 22.0218V20.9256H13.3519V20.4433ZM5.41307 22.8696V21.3469C5.41307 20.7733 5.0452 20.3875 4.45252 20.3824C4.14111 20.3773 3.81923 20.4738 3.59442 20.8139C3.42581 20.5449 3.16013 20.3824 2.78715 20.3824C2.52658 20.3824 2.27137 20.4586 2.07211 20.7428V20.4433H1.54074V22.8696H2.07722V21.5246C2.07722 21.1033 2.31224 20.8799 2.67475 20.8799C3.02729 20.8799 3.20611 21.1083 3.20611 21.5195V22.8696H3.74259V21.5246C3.74259 21.1033 3.98783 20.8799 4.34012 20.8799C4.70288 20.8799 4.87659 21.1083 4.87659 21.5195V22.8696H5.41307Z" fill="#363639"/>
<path d="M18.9031 1.95361H10.856V16.3213H18.9031V1.95361Z" fill="#F47D20"/>
<path fill-rule="evenodd" clip-rule="evenodd" d="M11.3669 9.13736C11.3669 6.2228 12.7405 3.62677 14.8795 1.95362C13.315 0.730227 11.3413 0 9.19594 0C4.11706 0 0 4.091 0 9.13736C0 14.184 4.11706 18.2747 9.19594 18.2747C11.3413 18.2747 13.315 17.5447 14.8795 16.3214C12.7405 14.6482 11.3669 12.0522 11.3669 9.13736Z" fill="#DE1F31"/>
<path fill-rule="evenodd" clip-rule="evenodd" d="M29.4719 14.7995V14.4449H29.3789L29.2716 14.6888L29.1641 14.4449H29.0711V14.7995H29.137V14.532L29.2374 14.7627H29.3056L29.4062 14.5314V14.7995H29.4719ZM28.8818 14.7995V14.5053H29.0011V14.4454H28.6971V14.5053H28.8164V14.7995H28.8818ZM29.759 9.13736C29.759 14.184 25.642 18.2747 20.5631 18.2747C18.4177 18.2747 16.4437 17.5447 14.8795 16.3214C17.0185 14.6482 18.3921 12.0522 18.3921 9.13736C18.3921 6.2228 17.0185 3.62677 14.8795 1.95362C16.4437 0.730227 18.4177 0 20.5631 0C25.642 0 29.759 4.091 29.759 9.13736Z" fill="#F3A837"/>
</svg>
