<svg width="47" height="15" viewBox="0 0 47 15" fill="none" xmlns="http://www.w3.org/2000/svg">
<path fill-rule="evenodd" clip-rule="evenodd" d="M22.81 0.265346L19.7318 14.7731H16.0088L19.0881 0.265346H22.81ZM38.4716 9.63287L40.4312 4.18554L41.5592 9.63287H38.4716ZM42.6254 14.7731H46.0684L43.063 0.265346H39.8858C39.1711 0.265346 38.5686 0.684008 38.3011 1.32931L32.7156 14.7731H36.6235L37.4 12.6059H42.1756L42.6254 14.7731ZM32.909 10.0363C32.9257 6.20767 27.6574 5.99609 27.6939 4.28553C27.7052 3.76537 28.1968 3.21232 29.2728 3.07062C29.8054 3.00052 31.2764 2.94611 32.9427 3.71936L33.5968 0.643367C32.7004 0.315233 31.5485 0 30.114 0C26.4349 0 23.8449 1.97225 23.8242 4.79558C23.7996 6.88502 25.6724 8.0494 27.0835 8.74416C28.5332 9.45504 29.0194 9.91134 29.0141 10.547C29.0032 11.5208 27.8573 11.95 26.786 11.967C24.9145 11.9963 23.8282 11.457 22.9627 11.0503L22.2888 14.2296C23.1577 14.6319 24.7632 14.9828 26.4283 15C30.3392 15 32.8969 13.0531 32.909 10.0363ZM17.4906 0.265346L11.4595 14.7731H7.52471L4.5565 3.1949C4.37628 2.48208 4.22016 2.22039 3.67225 1.92064C2.77732 1.43059 1.29972 0.971286 0 0.686158L0.0876579 0.265346H6.42206C7.22911 0.265346 7.95532 0.806574 8.13874 1.74432L9.70635 10.1399L13.5806 0.265346H17.4906Z" fill="url(#paint0_linear)"/>
<defs>
<linearGradient id="paint0_linear" x1="0" y1="7.50002" x2="46.0684" y2="7.50002" gradientUnits="userSpaceOnUse">
<stop stop-color="#231E5D"/>
<stop offset="1" stop-color="#074EA2"/>
</linearGradient>
</defs>
</svg>
