<svg width="30" height="23" viewBox="0 0 30 23" fill="none" xmlns="http://www.w3.org/2000/svg">
<path fill-rule="evenodd" clip-rule="evenodd" d="M8.97498 22.873V21.35C8.993 21.0916 8.89856 20.8379 8.71577 20.6537C8.53297 20.4696 8.27951 20.3728 8.02006 20.388C7.67726 20.3656 7.34941 20.5309 7.16445 20.8195C6.99582 20.5395 6.68706 20.374 6.35977 20.388C6.0748 20.3736 5.80351 20.5108 5.64676 20.7484V20.4489H5.1171V22.873H5.65185V21.5302C5.62786 21.362 5.68093 21.192 5.79641 21.067C5.9119 20.9421 6.07758 20.8754 6.24772 20.8855C6.59914 20.8855 6.77739 21.1139 6.77739 21.5252V22.873H7.31214V21.5302C7.29006 21.3624 7.34379 21.1935 7.45884 21.069C7.57389 20.9445 7.73841 20.8773 7.90802 20.8855C8.26961 20.8855 8.44277 21.1139 8.44277 21.5252V22.873H8.97498ZM11.9543 21.6622V20.4514H11.4196V20.7459C11.2374 20.5115 10.9529 20.3792 10.6556 20.3905C9.95246 20.3905 9.38242 20.9587 9.38242 21.6597C9.38242 22.3606 9.95246 22.9289 10.6556 22.9289C10.9529 22.9402 11.2374 22.8079 11.4196 22.5735V22.868H11.9492L11.9543 21.6622ZM9.98593 21.6622C10.0095 21.2639 10.3481 20.9574 10.7482 20.9723C11.1482 20.9873 11.4629 21.3183 11.4564 21.7173C11.4499 22.1162 11.1247 22.4369 10.7244 22.439C10.5195 22.4438 10.322 22.3622 10.1804 22.2144C10.0389 22.0665 9.96644 21.8661 9.98083 21.6622H9.98593ZM23.2708 20.393C23.4452 20.3926 23.618 20.4253 23.7801 20.4895C23.9348 20.5513 24.0758 20.6427 24.1952 20.7586C24.313 20.8734 24.4065 21.0107 24.4702 21.1622C24.6032 21.4876 24.6032 21.8521 24.4702 22.1775C24.4066 22.3291 24.313 22.4663 24.1952 22.5811C24.0758 22.697 23.9348 22.7884 23.7801 22.8502C23.4443 22.9803 23.0718 22.9803 22.7361 22.8502C22.5821 22.7885 22.4419 22.6971 22.3235 22.5811C22.2068 22.4659 22.1142 22.3287 22.0511 22.1775C21.9183 21.852 21.9183 21.4877 22.0511 21.1622C22.1142 21.011 22.2068 20.8738 22.3235 20.7586C22.4419 20.6426 22.5821 20.5512 22.7361 20.4895C22.9039 20.4201 23.084 20.3848 23.2657 20.3854L23.2708 20.393ZM23.2708 20.9007C23.1671 20.8993 23.0641 20.9183 22.9678 20.9566C22.877 20.9928 22.7947 21.0473 22.7259 21.1165C22.6557 21.1894 22.6011 21.2757 22.5654 21.3703C22.4877 21.573 22.4877 21.7972 22.5654 21.9998C22.601 22.0945 22.6556 22.1808 22.7259 22.2537C22.7947 22.3229 22.877 22.3774 22.9678 22.4136C23.1618 22.4893 23.3773 22.4893 23.5713 22.4136C23.6664 22.3785 23.7532 22.3241 23.8259 22.2537C23.8963 22.1809 23.9509 22.0945 23.9864 21.9998C24.0642 21.7972 24.0642 21.573 23.9864 21.3703C23.9509 21.2756 23.8963 21.1892 23.8259 21.1165C23.7532 21.0461 23.6664 20.9916 23.5713 20.9566C23.4752 20.9127 23.3713 20.8886 23.2657 20.8855L23.2708 20.9007ZM14.8318 21.6622C14.8318 20.9007 14.3582 20.393 13.6783 20.393C12.9751 20.4029 12.413 20.9791 12.4229 21.68C12.4327 22.381 13.0108 22.9412 13.7139 22.9314C14.0765 22.9438 14.4309 22.8227 14.7096 22.5913L14.455 22.2004C14.2539 22.3611 14.0048 22.4504 13.7471 22.4542C13.383 22.4854 13.0602 22.2221 13.0188 21.8602H14.8242C14.8318 21.7968 14.8318 21.7333 14.8318 21.6622ZM13.0213 21.449C13.0417 21.1141 13.324 20.8552 13.6605 20.8626C13.8205 20.8592 13.9754 20.9194 14.091 21.0298C14.2066 21.1403 14.2734 21.292 14.2767 21.4515L13.0213 21.449ZM17.06 21.0683C16.8274 20.9348 16.5644 20.8631 16.2961 20.8601C16.0058 20.8601 15.8326 20.9667 15.8326 21.1444C15.8326 21.3221 16.0159 21.3526 16.2451 21.383L16.4998 21.4185C17.0294 21.4947 17.3503 21.7181 17.3503 22.1445C17.3503 22.571 16.9429 22.9365 16.2426 22.9365C15.8673 22.9464 15.4986 22.8361 15.1909 22.6217L15.4455 22.2105C15.6792 22.3833 15.9645 22.4727 16.2553 22.4644C16.6169 22.4644 16.8104 22.3577 16.8104 22.1699C16.8104 22.0328 16.6729 21.9567 16.3826 21.9161L16.128 21.8805C15.583 21.8044 15.2877 21.5607 15.2877 21.1647C15.2877 20.6824 15.6849 20.388 16.3062 20.388C16.654 20.3764 16.9978 20.4645 17.2968 20.6418L17.06 21.0683ZM19.6065 20.9312H18.7432V22.0252C18.7432 22.2791 18.8298 22.4314 19.0946 22.4314C19.2599 22.4259 19.4211 22.3787 19.5632 22.2943L19.716 22.7461C19.5174 22.8696 19.2879 22.9347 19.0539 22.934C18.4274 22.934 18.2084 22.5989 18.2084 22.0354V20.9312H17.7144V20.4489H18.2084V19.7128H18.7432V20.4489H19.6065V20.9312ZM21.4374 20.388C21.5658 20.3885 21.6933 20.4108 21.8142 20.454L21.6513 20.9616C21.546 20.9198 21.4335 20.8991 21.3202 20.9007C20.9739 20.9007 20.8109 21.1241 20.8109 21.5252V22.8832H20.2813V20.459H20.8058V20.7535C20.9383 20.5268 21.1845 20.3904 21.4475 20.3981L21.4374 20.388ZM25.0992 22.5202C25.1323 22.5198 25.1651 22.5258 25.1959 22.538C25.2252 22.5499 25.252 22.5671 25.2749 22.5887C25.2973 22.6106 25.3154 22.6364 25.3284 22.6649C25.3544 22.7248 25.3544 22.7928 25.3284 22.8527C25.3154 22.8812 25.2973 22.907 25.2749 22.9289C25.252 22.9505 25.2252 22.9677 25.1959 22.9796C25.1655 22.9931 25.1325 23 25.0992 23C25.0006 22.9992 24.9114 22.9419 24.87 22.8527C24.8442 22.7927 24.8442 22.7249 24.87 22.6649C24.883 22.6364 24.9011 22.6106 24.9235 22.5887C24.9464 22.5671 24.9732 22.5499 25.0024 22.538C25.0292 22.5273 25.0576 22.5213 25.0864 22.5202H25.0992ZM25.0992 22.9492C25.1246 22.9493 25.1497 22.9441 25.173 22.934C25.1949 22.9242 25.2148 22.9104 25.2316 22.8933C25.2754 22.8493 25.2947 22.7866 25.2829 22.7256C25.2712 22.6647 25.2301 22.6135 25.173 22.5887C25.1497 22.5786 25.1246 22.5734 25.0992 22.5735C25.0738 22.5736 25.0487 22.5788 25.0253 22.5887C25.0024 22.5981 24.9817 22.6119 24.9642 22.6294C24.8982 22.7012 24.8982 22.8114 24.9642 22.8832C24.9998 22.9191 25.0485 22.9393 25.0992 22.939V22.9492ZM25.1145 22.6471C25.1382 22.646 25.1616 22.6532 25.1807 22.6674C25.1965 22.6805 25.205 22.7003 25.2036 22.7207C25.2043 22.7378 25.1978 22.7544 25.1858 22.7664C25.171 22.7798 25.1522 22.7878 25.1323 22.7893L25.2061 22.873H25.1476L25.0788 22.7893H25.0559V22.873H25.0075V22.6395L25.1145 22.6471ZM25.0584 22.6903V22.7512H25.1145C25.1244 22.7542 25.135 22.7542 25.145 22.7512C25.1486 22.744 25.1486 22.7355 25.145 22.7283C25.1486 22.7212 25.1486 22.7127 25.145 22.7055C25.135 22.7025 25.1244 22.7025 25.1145 22.7055L25.0584 22.6903Z" fill="black"/>
<path d="M18.8425 1.95447H10.8211V16.3242H18.8425V1.95447Z" fill="#7673C0"/>
<path fill-rule="evenodd" clip-rule="evenodd" d="M11.3304 9.14039C11.3274 6.33587 12.6186 3.68583 14.8318 1.95427C11.0732 -0.990222 5.67561 -0.561331 2.43241 2.93953C-0.810802 6.44039 -0.810802 11.8378 2.43241 15.3387C5.67561 18.8396 11.0732 19.2685 14.8318 16.324C12.6193 14.593 11.3282 11.944 11.3304 9.14039Z" fill="#EB001B"/>
<path fill-rule="evenodd" clip-rule="evenodd" d="M28.789 14.801V14.5168H28.9086V14.4558H28.6056V14.5168H28.7253V14.8112L28.789 14.801ZM29.3772 14.801V14.4457H29.2855L29.1786 14.6995L29.0716 14.4457H28.9774V14.801H29.0436V14.5345L29.1429 14.7655H29.2117L29.311 14.5345V14.8036L29.3772 14.801Z" fill="#00A1DF"/>
<path fill-rule="evenodd" clip-rule="evenodd" d="M29.6624 9.14052C29.6615 12.6383 27.6578 15.8287 24.5017 17.3575C21.3456 18.8862 17.591 18.4849 14.8318 16.3241C17.0433 14.5916 18.3345 11.943 18.3345 9.13925C18.3345 6.33547 17.0433 3.68688 14.8318 1.9544C17.591 -0.208003 21.3467 -0.610141 24.5037 0.918779C27.6607 2.4477 29.6648 5.63925 29.6649 9.13798L29.6624 9.14052Z" fill="#00A1DF"/>
</svg>
