<svg width="512" height="512" viewBox="0 0 512 512" fill="none" xmlns="http://www.w3.org/2000/svg">
<path d="M160 176V144C160 118.539 170.114 94.1212 188.118 76.1178C206.121 58.1143 230.539 48 256 48C281.461 48 305.879 58.1143 323.882 76.1178C341.886 94.1212 352 118.539 352 144V176M80 176C75.7565 176 71.6869 177.686 68.6863 180.686C65.6857 183.687 64 187.757 64 192V408C64 438.24 89.76 464 120 464H392C422.24 464 448 439.49 448 409.25V192C448 187.757 446.314 183.687 443.314 180.686C440.313 177.686 436.243 176 432 176H80Z" stroke="#0D0D0D" stroke-width="15" stroke-linecap="round" stroke-linejoin="round"/>
</svg>
