<svg width="614" height="614" viewBox="0 0 614 614" fill="none" xmlns="http://www.w3.org/2000/svg">
<path fill-rule="evenodd" clip-rule="evenodd" d="M474 308.063C474 210.283 399.223 131 307 131C214.777 131 140 210.283 140 308.063C140 396.437 201.059 469.689 280.906 482.984V359.261H238.493V308.063H280.906V269.054C280.906 224.685 305.844 200.157 343.986 200.157C362.259 200.157 381.375 203.62 381.375 203.62V247.198H360.306C339.572 247.198 333.086 260.841 333.086 274.864V308.063H379.399L372.003 359.261H333.094V483C412.941 469.712 474 396.46 474 308.063Z" fill="#141413"/>
<circle cx="307" cy="307" r="302" stroke="#141413" stroke-width="10"/>
</svg>
