<svg width="1611" height="449" viewBox="0 0 1611 449" fill="none" xmlns="http://www.w3.org/2000/svg">
<path d="M895.351 344.533C893.026 341.213 891.034 336.647 889.374 330.837C887.88 324.86 886.386 318.635 884.892 312.16C883.563 305.52 882.318 299.128 881.156 292.985C879.994 286.677 878.749 281.696 877.421 278.044C876.259 274.226 874.931 272.067 873.437 271.569C871.942 271.071 870.199 273.312 868.207 278.293L846.542 345.031C845.712 347.355 844.716 349.016 843.554 350.012C842.392 350.842 840.482 351.257 837.826 351.257C836.498 351.257 835.087 351.091 833.593 350.759C832.099 350.261 830.688 349.597 829.359 348.767C828.031 347.937 826.869 346.94 825.873 345.778C825.043 344.616 824.545 343.288 824.379 341.794C824.877 339.802 825.292 336.149 825.624 330.837C826.122 325.524 826.454 319.382 826.62 312.409C826.786 305.437 826.869 298.132 826.869 290.495C827.035 282.692 827.035 275.471 826.869 268.83C826.869 262.023 826.786 256.213 826.62 251.398C826.454 246.418 826.288 243.181 826.122 241.687C826.122 240.026 826.122 238.366 826.122 236.706C826.288 234.88 826.537 233.22 826.869 231.726C827.367 230.231 828.114 229.069 829.11 228.239C830.272 227.243 832.016 226.745 834.34 226.745C837.494 226.745 840.399 228.073 843.056 230.729C845.878 233.386 847.289 236.208 847.289 239.196C847.289 243.513 847.04 247.829 846.542 252.146C846.21 256.296 846.044 260.529 846.044 264.846C846.044 267.502 846.044 269.743 846.044 271.569C846.044 273.396 846.376 275.637 847.04 278.293C847.538 276.965 848.368 274.641 849.53 271.32C850.692 268 851.938 264.514 853.266 260.861C854.76 257.209 856.088 253.806 857.25 250.651C858.412 247.331 859.242 245.007 859.74 243.679C860.902 240.358 862.646 237.204 864.97 234.216C867.294 231.062 870.365 229.318 874.184 228.986C876.674 228.82 878.915 229.484 880.907 230.979C883.065 232.473 884.892 234.465 886.386 236.955C887.88 239.279 889.125 241.77 890.121 244.426C891.117 246.916 891.864 249.074 892.362 250.9L905.81 312.907L916.269 341.296C916.435 341.462 916.518 341.96 916.518 342.79C916.518 343.454 916.518 343.952 916.518 344.284C916.518 346.276 916.02 348.269 915.023 350.261C914.193 352.087 912.616 353 910.292 353C907.47 353 904.564 352.253 901.576 350.759C898.588 349.099 896.513 347.023 895.351 344.533Z" fill="#FFC04A"/>
<path d="M843.155 282.277C842.823 285.266 842.408 287.59 841.91 289.25C841.578 290.91 840.914 292.404 839.918 293.732C838.922 295.061 837.511 296.472 835.685 297.966C833.858 299.294 831.368 301.286 828.214 303.942C825.06 306.433 821.158 309.753 816.51 313.903C811.861 318.054 806.217 323.449 799.576 330.09C796.92 332.58 794.181 335.153 791.358 337.81C788.536 340.466 785.548 342.873 782.394 345.031C779.405 347.023 776.251 348.684 772.931 350.012C769.61 351.34 766.124 352.004 762.472 352.004C755.333 352.004 750.104 349.597 746.783 344.782C743.463 339.968 741.803 334.406 741.803 328.098C741.803 323.947 741.886 320.461 742.052 317.639C742.384 314.816 743.048 311.164 744.044 306.682C742.218 305.021 740.641 303.61 739.312 302.448C737.984 301.12 737.32 299.377 737.32 297.219C737.32 295.227 737.735 293.898 738.565 293.234C739.562 292.57 740.641 292.155 741.803 291.989C743.131 291.657 744.376 291.325 745.538 290.993C746.7 290.661 747.53 289.997 748.028 289.001C748.36 288.005 748.941 286.179 749.771 283.522C750.768 280.866 751.764 278.127 752.76 275.305C753.756 272.316 754.669 269.577 755.499 267.087C756.495 264.431 757.159 262.604 757.491 261.608C758.653 258.786 759.898 255.964 761.227 253.142C762.721 250.153 764.381 247.497 766.207 245.173C768.199 242.849 770.44 240.939 772.931 239.445C775.587 237.951 778.658 237.204 782.145 237.204C784.137 237.204 786.544 238.117 789.366 239.943C792.354 241.77 795.177 244.011 797.833 246.667C800.489 249.157 802.73 251.813 804.557 254.636C806.383 257.458 807.296 259.865 807.296 261.857C807.296 264.348 806.715 266.672 805.553 268.83C804.391 270.822 802.896 272.731 801.07 274.558C799.41 276.218 797.584 277.795 795.592 279.289C793.6 280.783 791.773 282.194 790.113 283.522C789.947 283.522 789.615 283.688 789.117 284.021C788.619 284.353 788.204 284.602 787.872 284.768C787.706 284.934 787.291 285.349 786.627 286.013C786.129 286.511 785.548 287.092 784.884 287.756C784.22 288.42 783.556 289.084 782.892 289.748C782.394 290.412 782.062 290.827 781.896 290.993C781.397 291.491 780.401 292.321 778.907 293.483C777.579 294.479 776.085 295.642 774.425 296.97C772.765 298.132 771.188 299.294 769.693 300.456C768.365 301.452 767.452 302.116 766.954 302.448L765.958 304.44C765.626 305.104 765.294 306.599 764.962 308.923C764.796 311.081 764.547 313.571 764.215 316.394C763.883 319.216 763.551 322.121 763.219 325.109C763.053 327.932 762.97 330.256 762.97 332.082C762.97 332.248 763.053 332.414 763.219 332.58C763.551 332.912 763.8 333.078 763.966 333.078C765.294 333.078 766.539 332.497 767.701 331.335C768.863 330.173 770.108 329.343 771.437 328.845L811.28 291.989L821.49 276.301C822.32 275.139 823.897 273.894 826.222 272.565C828.712 271.071 831.202 270.324 833.692 270.324C836.183 270.158 838.341 270.905 840.167 272.565C842.159 274.226 843.155 277.463 843.155 282.277ZM788.37 262.854C789.2 262.189 789.532 261.193 789.366 259.865C789.2 258.537 788.702 257.375 787.872 256.379C787.208 255.383 786.295 254.802 785.133 254.636C783.971 254.304 782.892 254.885 781.896 256.379C781.397 257.043 780.484 258.371 779.156 260.363C777.994 262.355 776.749 264.431 775.421 266.589C774.259 268.581 773.263 270.324 772.433 271.818C771.603 273.312 771.437 273.894 771.935 273.562L788.37 262.854Z" fill="#FFC04A"/>
<path d="M602.698 343.039C602.698 342.707 602.698 342.209 602.698 341.545C602.864 340.881 603.03 340.466 603.196 340.3L638.807 272.815C639.305 271.652 639.886 270.075 640.55 268.083C641.38 265.925 642.127 263.85 642.791 261.858C643.455 259.699 644.036 257.79 644.534 256.13C645.032 254.47 645.281 253.474 645.281 253.142V250.402C639.803 250.402 633.826 251.731 627.352 254.387C620.877 256.877 614.485 259.035 608.177 260.861C601.868 262.688 595.975 263.186 590.496 262.356C585.018 261.359 580.535 257.375 577.049 250.402C577.049 248.41 578.211 246.833 580.535 245.671C582.859 244.343 584.769 243.679 586.263 243.679C586.595 243.679 587.591 243.845 589.251 244.177C591.077 244.509 592.156 244.675 592.488 244.675C597.303 244.177 602.117 243.181 606.932 241.687C611.746 240.192 616.478 238.698 621.126 237.204C625.94 235.71 630.672 234.465 635.32 233.469C640.135 232.307 644.866 231.892 649.515 232.224C651.507 232.224 653.665 232.307 655.989 232.473C658.479 232.473 660.721 232.805 662.713 233.469C664.871 233.967 666.697 234.963 668.191 236.457C669.686 237.951 670.433 240.026 670.433 242.683C670.433 245.007 670.018 247.414 669.188 249.904C668.523 252.395 667.527 254.553 666.199 256.379L636.814 324.611V326.853L654.744 318.386H655.74L736.922 292.985H740.906C742.234 292.985 743.729 293.151 745.389 293.483C747.215 293.649 748.875 294.065 750.369 294.729C751.863 295.227 753.108 296.057 754.104 297.219C755.101 298.381 755.599 299.875 755.599 301.701C755.931 303.859 754.603 305.769 751.614 307.429C748.626 309.089 744.393 310.749 738.914 312.409C733.436 313.903 726.878 315.564 719.241 317.39C711.771 319.05 703.636 321.208 694.837 323.864C686.038 326.355 676.741 329.426 666.946 333.078C657.317 336.731 647.605 341.213 637.811 346.525C637.312 346.359 636.067 346.608 634.075 347.273C632.083 347.937 629.842 348.767 627.352 349.763C625.027 350.593 622.703 351.423 620.379 352.253C618.221 352.917 616.644 353.249 615.647 353.249C612.991 353.249 610.169 352.336 607.181 350.51C604.192 348.518 602.698 346.027 602.698 343.039Z" fill="#FFC04A"/>
<path d="M516.885 280.285C514.561 280.285 512.485 280.866 510.659 282.028C508.833 283.19 506.675 283.771 504.185 283.771C503.853 283.771 502.939 283.771 501.445 283.771C500.117 283.605 499.287 283.522 498.955 283.522C498.291 282.692 497.544 282.028 496.714 281.53C495.884 281.032 495.054 280.534 494.224 280.036C493.394 279.372 492.646 278.625 491.982 277.795C491.484 276.965 491.235 275.803 491.235 274.309C491.235 271.818 492.231 269.826 494.224 268.332C496.216 266.672 498.54 265.261 501.196 264.099C503.853 262.937 506.509 261.857 509.165 260.861C511.987 259.865 514.229 258.703 515.889 257.375V246.418C515.889 234.133 515.308 221.848 514.146 209.562C512.983 197.111 512.402 184.826 512.402 172.707C512.402 169.387 513.232 167.229 514.893 166.232C516.553 165.236 518.794 164.738 521.616 164.738C524.937 164.738 527.344 165.734 528.838 167.727C530.498 169.553 531.66 171.877 532.324 174.699C532.988 177.355 533.32 180.261 533.32 183.415C533.32 186.403 533.403 188.977 533.569 191.135C533.569 193.293 533.735 197.111 534.067 202.59C534.399 208.068 534.731 213.879 535.063 220.021C535.396 226.164 535.728 231.975 536.06 237.453C536.392 242.932 536.641 246.75 536.807 248.908C537.471 248.742 538.716 248.327 540.542 247.663C542.534 246.833 544.609 246.086 546.768 245.422C548.926 244.592 550.918 243.845 552.744 243.181C554.736 242.517 556.147 242.019 556.978 241.687C561.294 239.86 565.776 237.868 570.425 235.71C575.073 233.386 579.805 232.224 584.619 232.224C587.939 232.224 590.43 233.386 592.09 235.71C593.916 237.868 594.829 240.441 594.829 243.43C594.829 245.588 593.999 247.165 592.339 248.161C590.679 249.157 588.936 250.07 587.109 250.9L541.787 267.834C541.289 268.166 540.791 268.498 540.293 268.83C539.795 268.996 539.297 269.328 538.799 269.826V277.795C538.799 283.605 538.882 289.665 539.048 295.974C539.38 302.116 539.961 308.093 540.791 313.903C541.621 318.884 542.534 323.781 543.53 328.596C544.526 333.41 545.024 338.308 545.024 343.288C545.024 344.782 544.526 346.774 543.53 349.265C542.534 351.755 540.957 353 538.799 353C534.316 353 530.664 351.672 527.842 349.016C525.02 346.359 523.442 342.79 523.11 338.308C522.28 329.675 521.367 320.212 520.371 309.919C519.541 299.626 518.711 289.748 517.881 280.285H516.885Z" fill="#FFC04A"/>
<path d="M511.755 282.277C511.423 285.266 511.008 287.59 510.51 289.25C510.178 290.91 509.514 292.404 508.518 293.732C507.521 295.061 506.11 296.472 504.284 297.966C502.458 299.294 499.968 301.286 496.813 303.942C493.659 306.433 489.758 309.753 485.109 313.903C480.461 318.054 474.816 323.449 468.176 330.09C465.52 332.58 462.78 335.153 459.958 337.81C457.136 340.466 454.147 342.873 450.993 345.031C448.005 347.023 444.851 348.684 441.53 350.012C438.21 351.34 434.724 352.004 431.071 352.004C423.933 352.004 418.703 349.597 415.383 344.782C412.062 339.968 410.402 334.406 410.402 328.098C410.402 323.947 410.485 320.461 410.651 317.639C410.983 314.816 411.647 311.164 412.644 306.682C410.817 305.021 409.24 303.61 407.912 302.448C406.584 301.12 405.92 299.377 405.92 297.219C405.92 295.227 406.335 293.898 407.165 293.234C408.161 292.57 409.24 292.155 410.402 291.989C411.73 291.657 412.976 291.325 414.138 290.993C415.3 290.661 416.13 289.997 416.628 289.001C416.96 288.005 417.541 286.179 418.371 283.522C419.367 280.866 420.363 278.127 421.359 275.305C422.355 272.316 423.269 269.577 424.099 267.087C425.095 264.431 425.759 262.604 426.091 261.608C427.253 258.786 428.498 255.964 429.826 253.142C431.32 250.153 432.98 247.497 434.807 245.173C436.799 242.849 439.04 240.939 441.53 239.445C444.187 237.951 447.258 237.204 450.744 237.204C452.736 237.204 455.144 238.117 457.966 239.943C460.954 241.77 463.776 244.011 466.433 246.667C469.089 249.157 471.33 251.813 473.156 254.636C474.982 257.458 475.896 259.865 475.896 261.857C475.896 264.348 475.314 266.672 474.152 268.83C472.99 270.822 471.496 272.731 469.67 274.558C468.01 276.218 466.184 277.795 464.191 279.289C462.199 280.783 460.373 282.194 458.713 283.522C458.547 283.522 458.215 283.688 457.717 284.021C457.219 284.353 456.804 284.602 456.472 284.768C456.306 284.934 455.891 285.349 455.227 286.013C454.729 286.511 454.147 287.092 453.483 287.756C452.819 288.42 452.155 289.084 451.491 289.748C450.993 290.412 450.661 290.827 450.495 290.993C449.997 291.491 449.001 292.321 447.507 293.483C446.179 294.479 444.685 295.642 443.024 296.97C441.364 298.132 439.787 299.294 438.293 300.456C436.965 301.452 436.052 302.116 435.554 302.448L434.558 304.44C434.226 305.104 433.894 306.599 433.562 308.923C433.396 311.081 433.146 313.571 432.814 316.394C432.482 319.216 432.15 322.121 431.818 325.109C431.652 327.932 431.569 330.256 431.569 332.082C431.569 332.248 431.652 332.414 431.818 332.58C432.15 332.912 432.399 333.078 432.565 333.078C433.894 333.078 435.139 332.497 436.301 331.335C437.463 330.173 438.708 329.343 440.036 328.845L479.88 291.989L490.09 276.301C490.92 275.139 492.497 273.894 494.821 272.565C497.312 271.071 499.802 270.324 502.292 270.324C504.782 270.158 506.94 270.905 508.767 272.565C510.759 274.226 511.755 277.463 511.755 282.277ZM456.97 262.854C457.8 262.189 458.132 261.193 457.966 259.865C457.8 258.537 457.302 257.375 456.472 256.379C455.808 255.383 454.895 254.802 453.732 254.636C452.57 254.304 451.491 254.885 450.495 256.379C449.997 257.043 449.084 258.371 447.756 260.363C446.594 262.355 445.349 264.431 444.021 266.589C442.858 268.581 441.862 270.324 441.032 271.818C440.202 273.312 440.036 273.894 440.534 273.562L456.97 262.854Z" fill="#FFC04A"/>
<path d="M368.168 343.537C368.168 342.707 368.168 341.96 368.168 341.296C368.334 340.632 368.749 339.968 369.413 339.304C371.405 336.813 373.646 334.24 376.137 331.584C378.627 328.762 381.034 326.022 383.358 323.366C385.683 320.544 387.841 317.639 389.833 314.65C391.825 311.662 393.485 308.674 394.813 305.686V304.191L362.191 310.915H358.456C356.132 310.915 353.227 310.749 349.74 310.417C346.42 310.085 343.1 309.421 339.779 308.425C336.625 307.263 333.886 305.686 331.562 303.693C329.403 301.701 328.324 299.045 328.324 295.725C328.49 291.906 330.482 287.673 334.301 283.024C338.119 278.376 342.602 273.811 347.748 269.328C352.895 264.846 358.041 260.695 363.188 256.877C368.5 253.059 372.733 250.07 375.888 247.912C379.374 245.92 383.524 244.343 388.339 243.181C393.153 241.853 397.553 241.188 401.537 241.188C404.857 241.188 407.763 241.853 410.253 243.181C412.743 244.343 413.988 246.75 413.988 250.402C413.988 251.896 413.822 253.308 413.49 254.636C413.324 255.964 412.328 256.877 410.502 257.375C405.189 256.877 400.209 257.292 395.561 258.62C390.912 259.782 386.513 261.608 382.362 264.099C378.212 266.589 374.311 269.577 370.658 273.063C367.006 276.384 363.437 279.87 359.95 283.522C358.954 284.685 357.709 286.345 356.215 288.503C354.721 290.495 353.974 291.657 353.974 291.989V292.238C358.29 292.238 362.523 291.823 366.674 290.993C370.99 290.163 375.224 289.333 379.374 288.503C383.69 287.507 387.924 286.594 392.074 285.764C396.391 284.934 400.79 284.519 405.272 284.519C406.933 284.519 408.759 284.685 410.751 285.017C412.743 285.183 414.569 285.681 416.229 286.511C418.056 287.341 419.467 288.503 420.463 289.997C421.625 291.325 422.206 293.068 422.206 295.227C422.206 298.381 421.376 301.452 419.716 304.44C418.222 307.263 415.897 310.749 412.743 314.899C409.755 318.884 405.854 323.781 401.039 329.592C396.391 335.402 390.829 342.873 384.354 352.004C384.022 352.502 383.192 352.834 381.864 353C380.702 353.166 379.706 353.249 378.876 353.249C376.552 353.249 374.145 352.253 371.654 350.261C369.33 348.269 368.168 346.027 368.168 343.537Z" fill="#FFC04A"/>
<path d="M278.37 342.292C278.038 336.315 277.457 328.347 276.627 318.386C275.963 308.259 275.133 297.8 274.137 287.009C273.307 276.218 272.394 266.008 271.397 256.379C270.401 246.75 269.571 239.279 268.907 233.967C268.907 231.809 269.903 230.397 271.896 229.733C273.888 229.069 275.797 228.737 277.623 228.737C279.947 228.737 282.354 229.401 284.845 230.729C287.501 232.058 289.161 233.884 289.825 236.208C289.825 236.872 289.908 238.117 290.074 239.943C290.24 241.604 290.323 243.347 290.323 245.173C290.489 246.999 290.655 248.825 290.821 250.651C290.987 252.312 291.07 253.474 291.07 254.138C291.07 255.134 291.07 255.881 291.07 256.379C291.07 256.877 291.07 257.375 291.07 257.873C291.07 258.205 291.153 258.62 291.319 259.118C291.485 259.616 291.734 260.446 292.066 261.608C292.398 261.276 292.73 260.861 293.062 260.363C293.561 259.865 293.893 259.533 294.059 259.367C296.715 255.549 299.288 252.229 301.778 249.406C304.269 246.418 306.842 243.679 309.498 241.188C312.154 238.532 315.06 235.793 318.214 232.971C321.534 229.982 325.353 226.579 329.669 222.761C330.665 221.931 331.412 221.35 331.91 221.018C332.408 220.52 332.823 220.188 333.155 220.021C333.653 219.689 334.151 219.523 334.649 219.523C335.147 219.357 335.812 219.274 336.642 219.274C339.464 219.274 342.286 220.271 345.108 222.263C348.097 224.089 349.591 226.662 349.591 229.982C349.591 231.145 349.176 232.39 348.346 233.718C347.516 234.88 346.52 236.042 345.357 237.204C344.195 238.2 342.95 239.113 341.622 239.943C340.46 240.773 339.381 241.354 338.385 241.687C334.068 245.505 329.503 249.904 324.688 254.885C319.874 259.699 315.392 264.929 311.241 270.573C307.091 276.218 303.688 282.111 301.031 288.254C298.375 294.396 297.047 300.539 297.047 306.682C297.047 312.326 297.462 317.888 298.292 323.366C299.122 328.845 299.537 334.406 299.537 340.051V348.767C298.209 350.095 297.047 351.174 296.051 352.004C295.055 352.834 293.644 353.249 291.817 353.249C288.995 353.249 286.256 352.087 283.6 349.763C280.943 347.272 279.2 344.782 278.37 342.292Z" fill="#FFC04A"/>
<path d="M285.94 282.277C285.608 285.266 285.193 287.59 284.695 289.25C284.363 290.91 283.699 292.404 282.703 293.732C281.707 295.061 280.296 296.472 278.47 297.966C276.644 299.294 274.153 301.286 270.999 303.942C267.845 306.433 263.943 309.753 259.295 313.903C254.646 318.054 249.002 323.449 242.361 330.09C239.705 332.58 236.966 335.153 234.144 337.81C231.321 340.466 228.333 342.873 225.179 345.031C222.19 347.023 219.036 348.684 215.716 350.012C212.396 351.34 208.909 352.004 205.257 352.004C198.118 352.004 192.889 349.597 189.568 344.782C186.248 339.968 184.588 334.406 184.588 328.098C184.588 323.947 184.671 320.461 184.837 317.639C185.169 314.816 185.833 311.164 186.829 306.682C185.003 305.021 183.426 303.61 182.098 302.448C180.77 301.12 180.105 299.377 180.105 297.219C180.105 295.227 180.521 293.898 181.351 293.234C182.347 292.57 183.426 292.155 184.588 291.989C185.916 291.657 187.161 291.325 188.323 290.993C189.485 290.661 190.315 289.997 190.813 289.001C191.146 288.005 191.727 286.179 192.557 283.522C193.553 280.866 194.549 278.127 195.545 275.305C196.541 272.316 197.454 269.577 198.284 267.087C199.28 264.431 199.944 262.604 200.276 261.608C201.438 258.786 202.684 255.964 204.012 253.142C205.506 250.153 207.166 247.497 208.992 245.173C210.984 242.849 213.226 240.939 215.716 239.445C218.372 237.951 221.443 237.204 224.93 237.204C226.922 237.204 229.329 238.117 232.151 239.943C235.14 241.77 237.962 244.011 240.618 246.667C243.274 249.157 245.516 251.813 247.342 254.636C249.168 257.458 250.081 259.865 250.081 261.857C250.081 264.348 249.5 266.672 248.338 268.83C247.176 270.822 245.682 272.731 243.855 274.558C242.195 276.218 240.369 277.795 238.377 279.289C236.385 280.783 234.559 282.194 232.898 283.522C232.732 283.522 232.4 283.688 231.902 284.021C231.404 284.353 230.989 284.602 230.657 284.768C230.491 284.934 230.076 285.349 229.412 286.013C228.914 286.511 228.333 287.092 227.669 287.756C227.005 288.42 226.341 289.084 225.677 289.748C225.179 290.412 224.847 290.827 224.681 290.993C224.183 291.491 223.187 292.321 221.692 293.483C220.364 294.479 218.87 295.642 217.21 296.97C215.55 298.132 213.973 299.294 212.479 300.456C211.15 301.452 210.237 302.116 209.739 302.448L208.743 304.44C208.411 305.104 208.079 306.599 207.747 308.923C207.581 311.081 207.332 313.571 207 316.394C206.668 319.216 206.336 322.121 206.004 325.109C205.838 327.932 205.755 330.256 205.755 332.082C205.755 332.248 205.838 332.414 206.004 332.58C206.336 332.912 206.585 333.078 206.751 333.078C208.079 333.078 209.324 332.497 210.486 331.335C211.648 330.173 212.894 329.343 214.222 328.845L254.065 291.989L264.275 276.301C265.105 275.139 266.683 273.894 269.007 272.565C271.497 271.071 273.987 270.324 276.478 270.324C278.968 270.158 281.126 270.905 282.952 272.565C284.944 274.226 285.94 277.463 285.94 282.277ZM231.155 262.854C231.985 262.189 232.317 261.193 232.151 259.865C231.985 258.537 231.487 257.375 230.657 256.379C229.993 255.383 229.08 254.802 227.918 254.636C226.756 254.304 225.677 254.885 224.681 256.379C224.183 257.043 223.27 258.371 221.941 260.363C220.779 262.355 219.534 264.431 218.206 266.589C217.044 268.581 216.048 270.324 215.218 271.818C214.388 273.312 214.222 273.894 214.72 273.562L231.155 262.854Z" fill="#FFC04A"/>
<path d="M136.626 317.39L109.233 250.9C109.067 250.734 108.984 250.568 108.984 250.402V249.406C108.984 247.912 109.399 246.667 110.229 245.671C111.226 244.509 112.388 243.513 113.716 242.683C114.048 242.683 114.712 242.683 115.708 242.683C116.704 242.517 117.368 242.434 117.7 242.434C120.854 242.434 123.096 242.932 124.424 243.928C125.918 244.924 127.827 246.252 130.151 247.912C130.815 250.402 131.646 252.976 132.642 255.632C133.804 258.288 135.132 261.691 136.626 265.842C138.286 269.826 140.361 274.89 142.852 281.032C145.342 287.175 148.496 294.978 152.314 304.44L153.56 305.686C154.058 304.855 154.473 303.776 154.805 302.448C155.303 301.12 156.05 298.796 157.046 295.476C158.208 292.155 159.785 287.341 161.777 281.032C163.77 274.724 166.592 266.174 170.244 255.383C171.572 253.225 172.485 250.734 172.983 247.912C173.481 245.09 174.062 242.434 174.727 239.943C175.391 237.453 176.387 235.378 177.715 233.718C179.209 232.058 181.45 231.228 184.438 231.228C187.261 231.228 190 232.39 192.656 234.714C195.312 236.872 196.641 239.528 196.641 242.683C196.641 244.177 196.143 245.837 195.146 247.663C194.15 249.323 193.154 250.734 192.158 251.896L161.777 353H160.283C159.619 353 158.623 352.917 157.295 352.751C156.133 352.585 154.888 352.336 153.56 352.004C152.231 351.506 151.069 351.008 150.073 350.51C149.077 350.012 148.496 349.431 148.33 348.767L136.626 318.386V317.39Z" fill="#FFC04A"/>
<path d="M765.472 114.818C765.14 110.502 764.725 106.186 764.227 101.869C763.895 97.3867 763.313 92.9873 762.483 88.6709C762.483 85.0186 763.646 82.6943 765.97 81.6982C768.46 80.7021 771.116 80.2041 773.938 80.2041H778.919C781.409 81.3662 783.152 82.7773 784.148 84.4375C785.145 86.0977 785.809 87.9238 786.141 89.916C786.473 91.9082 786.556 93.9834 786.39 96.1416C786.39 98.2998 786.473 100.375 786.639 102.367C786.805 103.197 786.888 104.608 786.888 106.601C786.888 108.593 786.888 110.668 786.888 112.826C787.054 114.984 787.22 116.977 787.386 118.803C787.718 120.629 788.133 121.791 788.631 122.289L810.545 81.2002C811.541 79.374 812.952 77.8799 814.778 76.7178C816.771 75.3896 818.929 74.8916 821.253 75.2236C824.905 75.5557 827.645 76.3027 829.471 77.4648C831.297 78.4609 832.542 79.8721 833.206 81.6982C834.036 83.3584 834.451 85.4336 834.451 87.9238C834.617 90.4141 834.783 93.1533 834.949 96.1416C834.949 97.1377 835.032 99.0469 835.198 101.869C835.364 104.525 835.53 107.348 835.696 110.336C836.028 113.324 836.277 116.146 836.443 118.803C836.775 121.459 837.024 123.285 837.19 124.281H838.187C838.519 123.119 839.1 120.878 839.93 117.558C840.926 114.237 842.005 110.751 843.167 107.099C844.329 103.446 845.408 99.96 846.404 96.6396C847.4 93.3193 848.147 90.9951 848.646 89.667C848.812 89.335 849.144 88.6709 849.642 87.6748C850.14 86.5127 850.638 85.3506 851.136 84.1885C851.634 82.8604 852.132 81.6982 852.63 80.7021C853.128 79.54 853.46 78.71 853.626 78.2119C854.788 76.3857 855.95 75.4727 857.112 75.4727C858.44 75.3066 859.852 75.2236 861.346 75.2236C865.496 75.2236 868.65 76.3027 870.809 78.4609C873.133 80.4531 874.793 83.0264 875.789 86.1807C876.951 89.335 877.781 92.8213 878.279 96.6396C878.777 100.292 879.358 103.695 880.022 106.85C880.188 106.85 880.271 107.016 880.271 107.348C880.271 107.514 880.188 107.68 880.022 107.846L893.719 180.312C894.383 180.976 894.715 181.557 894.715 182.055C894.881 182.553 894.964 183.217 894.964 184.047C894.964 185.873 894.051 187.699 892.225 189.525C890.564 191.186 888.821 192.016 886.995 192.016C884.505 192.016 881.6 191.103 878.279 189.276C875.125 187.45 873.299 185.126 872.801 182.304L861.346 123.285L860.101 121.293C859.769 122.123 859.021 124.53 857.859 128.515C856.863 132.333 855.618 137.23 854.124 143.207C852.63 149.018 850.887 155.575 848.895 162.88C847.068 170.185 845.159 177.655 843.167 185.292C842.835 186.786 841.839 187.948 840.179 188.778C838.685 189.442 837.356 189.774 836.194 189.774C832.708 189.774 829.886 189.359 827.728 188.529C825.569 187.699 823.909 186.454 822.747 184.794C821.585 183.134 820.755 181.142 820.257 178.817C819.759 176.493 819.344 173.837 819.012 170.849C819.012 170.185 818.846 167.86 818.514 163.876C818.182 159.726 817.767 155.077 817.269 149.931C816.937 144.618 816.521 139.306 816.023 133.993C815.525 128.681 815.193 124.447 815.027 121.293C815.027 120.629 815.027 120.131 815.027 119.799C815.027 119.467 815.027 119.218 815.027 119.052C815.027 118.72 814.944 118.388 814.778 118.056C814.612 117.558 814.28 116.811 813.782 115.814L806.561 132.997L795.105 175.082L792.615 190.521C792.449 191.518 791.951 192.431 791.121 193.261C790.457 193.925 789.627 194.506 788.631 195.004C787.635 195.336 786.639 195.585 785.643 195.751C784.646 195.917 783.816 196 783.152 196C779.5 196 776.346 194.672 773.689 192.016C771.199 189.359 769.871 186.454 769.705 183.3C769.539 182.138 769.373 179.896 769.207 176.576C769.041 173.09 768.792 169.022 768.46 164.374C768.128 159.726 767.796 154.828 767.464 149.682C767.298 144.535 767.049 139.638 766.717 134.989C766.385 130.341 766.053 126.273 765.721 122.787C765.555 119.301 765.472 116.977 765.472 115.814V114.818Z" fill="#FFC04A"/>
<path d="M728.049 126.522C726.555 129.179 724.812 132.416 722.819 136.234C720.993 139.887 719.001 143.871 716.843 148.188C714.685 152.338 712.277 156.571 709.621 160.888C707.131 165.038 704.475 168.856 701.652 172.343C698.996 175.829 696.174 178.817 693.186 181.308C690.197 183.632 687.126 185.043 683.972 185.541C682.644 185.541 681.149 185.458 679.489 185.292C677.829 184.96 676.169 184.545 674.509 184.047C672.849 183.383 671.438 182.553 670.275 181.557C669.279 180.395 668.781 178.9 668.781 177.074C668.947 160.141 670.192 144.784 672.517 131.005C674.841 117.06 678.493 104.857 683.474 94.3984C688.454 83.7734 694.846 74.9746 702.648 68.002C710.451 61.0293 719.914 56.0488 731.037 53.0605C731.369 53.0605 731.95 53.0605 732.78 53.0605C733.776 52.8945 734.44 52.8115 734.772 52.8115C739.753 52.6455 743.322 54.9697 745.48 59.7842C747.805 64.4326 749.465 71.9033 750.461 82.1963C751.623 92.3232 752.37 105.438 752.702 121.542C753.2 137.479 754.113 156.654 755.441 179.066C755.939 180.893 756.188 182.47 756.188 183.798C756.354 185.126 756.438 186.703 756.438 188.529C756.438 191.02 755.69 192.929 754.196 194.257C752.702 195.419 750.793 196 748.469 196C743.654 196 740.251 194.672 738.259 192.016C736.267 189.359 734.938 185.79 734.274 181.308C734.274 181.142 734.108 179.813 733.776 177.323C733.61 174.833 733.278 172.011 732.78 168.856C732.448 165.536 732.116 162.216 731.784 158.896C731.452 155.575 731.203 152.836 731.037 150.678V149.682C730.705 148.021 730.456 145.946 730.29 143.456C730.29 140.966 730.124 138.559 729.792 136.234C729.46 133.412 729.211 130.59 729.045 127.768L728.049 126.522ZM722.57 77.2158C718.088 80.5361 713.688 85.0186 709.372 90.6631C705.056 96.3076 701.984 101.786 700.158 107.099C699.328 109.589 698.415 112.992 697.419 117.309C696.423 121.625 695.51 125.941 694.68 130.258C694.016 134.408 693.435 138.31 692.937 141.962C692.438 145.448 692.189 147.689 692.189 148.686C692.355 148.686 692.521 148.52 692.688 148.188C693.02 147.855 693.269 147.606 693.435 147.44C703.728 137.479 710.949 126.771 715.1 115.316C719.416 103.695 721.906 90.9951 722.57 77.2158Z" fill="#FFC04A"/>
<path d="M612.681 186.537C612.681 185.707 612.681 184.96 612.681 184.296C612.847 183.632 613.262 182.968 613.926 182.304C615.918 179.813 618.159 177.24 620.649 174.584C623.14 171.762 625.547 169.022 627.871 166.366C630.195 163.544 632.354 160.639 634.346 157.65C636.338 154.662 637.998 151.674 639.326 148.686V147.191L606.704 153.915H602.969C600.645 153.915 597.739 153.749 594.253 153.417C590.933 153.085 587.612 152.421 584.292 151.425C581.138 150.263 578.398 148.686 576.074 146.693C573.916 144.701 572.837 142.045 572.837 138.725C573.003 134.906 574.995 130.673 578.813 126.024C582.632 121.376 587.114 116.811 592.261 112.328C597.407 107.846 602.554 103.695 607.7 99.877C613.013 96.0586 617.246 93.0703 620.4 90.9121C623.887 88.9199 628.037 87.3428 632.852 86.1807C637.666 84.8525 642.065 84.1885 646.05 84.1885C649.37 84.1885 652.275 84.8525 654.766 86.1807C657.256 87.3428 658.501 89.75 658.501 93.4023C658.501 94.8965 658.335 96.3076 658.003 97.6357C657.837 98.9639 656.841 99.877 655.015 100.375C649.702 99.877 644.722 100.292 640.073 101.62C635.425 102.782 631.025 104.608 626.875 107.099C622.725 109.589 618.823 112.577 615.171 116.063C611.519 119.384 607.949 122.87 604.463 126.522C603.467 127.685 602.222 129.345 600.728 131.503C599.233 133.495 598.486 134.657 598.486 134.989V135.238C602.803 135.238 607.036 134.823 611.187 133.993C615.503 133.163 619.736 132.333 623.887 131.503C628.203 130.507 632.437 129.594 636.587 128.764C640.903 127.934 645.303 127.519 649.785 127.519C651.445 127.519 653.271 127.685 655.264 128.017C657.256 128.183 659.082 128.681 660.742 129.511C662.568 130.341 663.979 131.503 664.976 132.997C666.138 134.325 666.719 136.068 666.719 138.227C666.719 141.381 665.889 144.452 664.229 147.44C662.734 150.263 660.41 153.749 657.256 157.899C654.268 161.884 650.366 166.781 645.552 172.592C640.903 178.402 635.342 185.873 628.867 195.004C628.535 195.502 627.705 195.834 626.377 196C625.215 196.166 624.219 196.249 623.389 196.249C621.064 196.249 618.657 195.253 616.167 193.261C613.843 191.269 612.681 189.027 612.681 186.537Z" fill="#FFC04A"/>
<path d="M550.604 187.533C548.28 184.213 546.288 179.647 544.628 173.837C543.134 167.86 541.64 161.635 540.146 155.16C538.817 148.52 537.572 142.128 536.41 135.985C535.248 129.677 534.003 124.696 532.675 121.044C531.513 117.226 530.185 115.067 528.69 114.569C527.196 114.071 525.453 116.312 523.461 121.293L501.796 188.031C500.966 190.355 499.97 192.016 498.808 193.012C497.646 193.842 495.736 194.257 493.08 194.257C491.752 194.257 490.341 194.091 488.847 193.759C487.353 193.261 485.941 192.597 484.613 191.767C483.285 190.937 482.123 189.94 481.127 188.778C480.297 187.616 479.799 186.288 479.633 184.794C480.131 182.802 480.546 179.149 480.878 173.837C481.376 168.524 481.708 162.382 481.874 155.409C482.04 148.437 482.123 141.132 482.123 133.495C482.289 125.692 482.289 118.471 482.123 111.83C482.123 105.023 482.04 99.2129 481.874 94.3984C481.708 89.418 481.542 86.1807 481.376 84.6865C481.376 83.0264 481.376 81.3662 481.376 79.7061C481.542 77.8799 481.791 76.2197 482.123 74.7256C482.621 73.2314 483.368 72.0693 484.364 71.2393C485.526 70.2432 487.27 69.7451 489.594 69.7451C492.748 69.7451 495.653 71.0732 498.31 73.7295C501.132 76.3857 502.543 79.208 502.543 82.1963C502.543 86.5127 502.294 90.8291 501.796 95.1455C501.464 99.2959 501.298 103.529 501.298 107.846C501.298 110.502 501.298 112.743 501.298 114.569C501.298 116.396 501.63 118.637 502.294 121.293C502.792 119.965 503.622 117.641 504.784 114.32C505.946 111 507.191 107.514 508.52 103.861C510.014 100.209 511.342 96.8057 512.504 93.6514C513.666 90.3311 514.496 88.0068 514.994 86.6787C516.156 83.3584 517.899 80.2041 520.224 77.2158C522.548 74.0615 525.619 72.3184 529.438 71.9863C531.928 71.8203 534.169 72.4844 536.161 73.9785C538.319 75.4727 540.146 77.4648 541.64 79.9551C543.134 82.2793 544.379 84.7695 545.375 87.4258C546.371 89.916 547.118 92.0742 547.616 93.9004L561.063 155.907L571.522 184.296C571.688 184.462 571.771 184.96 571.771 185.79C571.771 186.454 571.771 186.952 571.771 187.284C571.771 189.276 571.273 191.269 570.277 193.261C569.447 195.087 567.87 196 565.546 196C562.724 196 559.818 195.253 556.83 193.759C553.842 192.099 551.767 190.023 550.604 187.533Z" fill="#FFC04A"/>
<path d="M455.906 186.537C454.246 169.936 452.835 155.741 451.673 143.954C450.511 132.167 449.515 122.289 448.685 114.32C447.854 106.352 447.107 100.043 446.443 95.3945C445.945 90.5801 445.53 87.0107 445.198 84.6865C444.866 82.1963 444.617 80.5361 444.451 79.7061C444.285 78.876 444.202 78.3779 444.202 78.2119V77.2158C444.202 75.3896 444.949 73.8955 446.443 72.7334C448.104 71.4053 449.764 70.7412 451.424 70.7412C453.914 70.7412 456.57 71.1562 459.393 71.9863C462.381 72.8164 464.373 74.5596 465.369 77.2158C466.863 85.3506 467.859 93.5684 468.357 101.869C469.021 110.17 469.52 118.471 469.852 126.771C470.35 134.906 470.931 143.124 471.595 151.425C472.425 159.726 473.836 167.943 475.828 176.078C475.828 176.41 475.911 177.074 476.077 178.07C476.409 179.066 476.658 180.146 476.824 181.308C477.156 182.47 477.405 183.549 477.571 184.545C477.737 185.541 477.82 186.205 477.82 186.537V187.035C477.82 187.201 477.903 187.367 478.069 187.533C478.069 189.525 477.156 191.518 475.33 193.51C473.504 195.502 471.595 196.332 469.603 196C469.104 195.834 467.859 195.585 465.867 195.253C464.041 194.755 462.796 194.34 462.132 194.008C461.634 193.842 460.97 193.51 460.14 193.012C459.31 192.348 458.479 191.684 457.649 191.02C456.985 190.355 456.404 189.608 455.906 188.778C455.408 187.948 455.408 187.201 455.906 186.537ZM441.961 4.99902C441.961 3.83691 442.874 2.84082 444.7 2.01074C446.692 1.01465 448.187 0.516602 449.183 0.516602C451.673 0.516602 454.412 1.26367 457.4 2.75781C460.555 4.08594 462.132 6.16113 462.132 8.9834C462.132 11.8057 461.717 13.7148 460.887 14.7109C460.223 15.707 458.479 16.2051 455.657 16.2051C452.669 16.2051 449.598 15.209 446.443 13.2168C443.455 11.2246 441.961 8.48535 441.961 4.99902Z" fill="#FFC04A"/>
<path d="M445.128 125.277C444.796 128.266 444.381 130.59 443.883 132.25C443.551 133.91 442.887 135.404 441.891 136.732C440.895 138.061 439.483 139.472 437.657 140.966C435.831 142.294 433.341 144.286 430.187 146.942C427.032 149.433 423.131 152.753 418.482 156.903C413.834 161.054 408.189 166.449 401.549 173.09C398.893 175.58 396.153 178.153 393.331 180.81C390.509 183.466 387.521 185.873 384.366 188.031C381.378 190.023 378.224 191.684 374.903 193.012C371.583 194.34 368.097 195.004 364.444 195.004C357.306 195.004 352.076 192.597 348.756 187.782C345.436 182.968 343.775 177.406 343.775 171.098C343.775 166.947 343.858 163.461 344.024 160.639C344.356 157.816 345.021 154.164 346.017 149.682C344.19 148.021 342.613 146.61 341.285 145.448C339.957 144.12 339.293 142.377 339.293 140.219C339.293 138.227 339.708 136.898 340.538 136.234C341.534 135.57 342.613 135.155 343.775 134.989C345.104 134.657 346.349 134.325 347.511 133.993C348.673 133.661 349.503 132.997 350.001 132.001C350.333 131.005 350.914 129.179 351.744 126.522C352.74 123.866 353.736 121.127 354.732 118.305C355.729 115.316 356.642 112.577 357.472 110.087C358.468 107.431 359.132 105.604 359.464 104.608C360.626 101.786 361.871 98.9639 363.199 96.1416C364.693 93.1533 366.354 90.4971 368.18 88.1729C370.172 85.8486 372.413 83.9395 374.903 82.4453C377.56 80.9512 380.631 80.2041 384.117 80.2041C386.109 80.2041 388.517 81.1172 391.339 82.9434C394.327 84.7695 397.149 87.0107 399.806 89.667C402.462 92.1572 404.703 94.8135 406.529 97.6357C408.355 100.458 409.269 102.865 409.269 104.857C409.269 107.348 408.688 109.672 407.525 111.83C406.363 113.822 404.869 115.731 403.043 117.558C401.383 119.218 399.557 120.795 397.564 122.289C395.572 123.783 393.746 125.194 392.086 126.522C391.92 126.522 391.588 126.688 391.09 127.021C390.592 127.353 390.177 127.602 389.845 127.768C389.679 127.934 389.264 128.349 388.6 129.013C388.102 129.511 387.521 130.092 386.856 130.756C386.192 131.42 385.528 132.084 384.864 132.748C384.366 133.412 384.034 133.827 383.868 133.993C383.37 134.491 382.374 135.321 380.88 136.483C379.552 137.479 378.058 138.642 376.397 139.97C374.737 141.132 373.16 142.294 371.666 143.456C370.338 144.452 369.425 145.116 368.927 145.448L367.931 147.44C367.599 148.104 367.267 149.599 366.935 151.923C366.769 154.081 366.52 156.571 366.188 159.394C365.855 162.216 365.523 165.121 365.191 168.109C365.025 170.932 364.942 173.256 364.942 175.082C364.942 175.248 365.025 175.414 365.191 175.58C365.523 175.912 365.772 176.078 365.938 176.078C367.267 176.078 368.512 175.497 369.674 174.335C370.836 173.173 372.081 172.343 373.409 171.845L413.253 134.989L423.463 119.301C424.293 118.139 425.87 116.894 428.194 115.565C430.685 114.071 433.175 113.324 435.665 113.324C438.155 113.158 440.313 113.905 442.14 115.565C444.132 117.226 445.128 120.463 445.128 125.277ZM390.343 105.854C391.173 105.189 391.505 104.193 391.339 102.865C391.173 101.537 390.675 100.375 389.845 99.3789C389.181 98.3828 388.268 97.8018 387.105 97.6357C385.943 97.3037 384.864 97.8848 383.868 99.3789C383.37 100.043 382.457 101.371 381.129 103.363C379.967 105.355 378.722 107.431 377.394 109.589C376.231 111.581 375.235 113.324 374.405 114.818C373.575 116.312 373.409 116.894 373.907 116.562L390.343 105.854Z" fill="#FFC04A"/>
<path d="M207.739 114.818C207.407 110.502 206.992 106.186 206.494 101.869C206.162 97.3867 205.581 92.9873 204.751 88.6709C204.751 85.0186 205.913 82.6943 208.237 81.6982C210.728 80.7021 213.384 80.2041 216.206 80.2041H221.187C223.677 81.3662 225.42 82.7773 226.416 84.4375C227.412 86.0977 228.076 87.9238 228.408 89.916C228.74 91.9082 228.823 93.9834 228.657 96.1416C228.657 98.2998 228.74 100.375 228.906 102.367C229.072 103.197 229.155 104.608 229.155 106.601C229.155 108.593 229.155 110.668 229.155 112.826C229.321 114.984 229.487 116.977 229.653 118.803C229.985 120.629 230.4 121.791 230.898 122.289L252.813 81.2002C253.809 79.374 255.22 77.8799 257.046 76.7178C259.038 75.3896 261.196 74.8916 263.521 75.2236C267.173 75.5557 269.912 76.3027 271.738 77.4648C273.564 78.4609 274.81 79.8721 275.474 81.6982C276.304 83.3584 276.719 85.4336 276.719 87.9238C276.885 90.4141 277.051 93.1533 277.217 96.1416C277.217 97.1377 277.3 99.0469 277.466 101.869C277.632 104.525 277.798 107.348 277.964 110.336C278.296 113.324 278.545 116.146 278.711 118.803C279.043 121.459 279.292 123.285 279.458 124.281H280.454C280.786 123.119 281.367 120.878 282.197 117.558C283.193 114.237 284.272 110.751 285.435 107.099C286.597 103.446 287.676 99.96 288.672 96.6396C289.668 93.3193 290.415 90.9951 290.913 89.667C291.079 89.335 291.411 88.6709 291.909 87.6748C292.407 86.5127 292.905 85.3506 293.403 84.1885C293.901 82.8604 294.399 81.6982 294.897 80.7021C295.396 79.54 295.728 78.71 295.894 78.2119C297.056 76.3857 298.218 75.4727 299.38 75.4727C300.708 75.3066 302.119 75.2236 303.613 75.2236C307.764 75.2236 310.918 76.3027 313.076 78.4609C315.4 80.4531 317.061 83.0264 318.057 86.1807C319.219 89.335 320.049 92.8213 320.547 96.6396C321.045 100.292 321.626 103.695 322.29 106.85C322.456 106.85 322.539 107.016 322.539 107.348C322.539 107.514 322.456 107.68 322.29 107.846L335.986 180.312C336.65 180.976 336.982 181.557 336.982 182.055C337.148 182.553 337.231 183.217 337.231 184.047C337.231 185.873 336.318 187.699 334.492 189.525C332.832 191.186 331.089 192.016 329.263 192.016C326.772 192.016 323.867 191.103 320.547 189.276C317.393 187.45 315.566 185.126 315.068 182.304L303.613 123.285L302.368 121.293C302.036 122.123 301.289 124.53 300.127 128.515C299.131 132.333 297.886 137.23 296.392 143.207C294.897 149.018 293.154 155.575 291.162 162.88C289.336 170.185 287.427 177.655 285.435 185.292C285.103 186.786 284.106 187.948 282.446 188.778C280.952 189.442 279.624 189.774 278.462 189.774C274.976 189.774 272.153 189.359 269.995 188.529C267.837 187.699 266.177 186.454 265.015 184.794C263.853 183.134 263.022 181.142 262.524 178.817C262.026 176.493 261.611 173.837 261.279 170.849C261.279 170.185 261.113 167.86 260.781 163.876C260.449 159.726 260.034 155.077 259.536 149.931C259.204 144.618 258.789 139.306 258.291 133.993C257.793 128.681 257.461 124.447 257.295 121.293C257.295 120.629 257.295 120.131 257.295 119.799C257.295 119.467 257.295 119.218 257.295 119.052C257.295 118.72 257.212 118.388 257.046 118.056C256.88 117.558 256.548 116.811 256.05 115.814L248.828 132.997L237.373 175.082L234.883 190.521C234.717 191.518 234.219 192.431 233.389 193.261C232.725 193.925 231.895 194.506 230.898 195.004C229.902 195.336 228.906 195.585 227.91 195.751C226.914 195.917 226.084 196 225.42 196C221.768 196 218.613 194.672 215.957 192.016C213.467 189.359 212.139 186.454 211.973 183.3C211.807 182.138 211.641 179.896 211.475 176.576C211.309 173.09 211.06 169.022 210.728 164.374C210.396 159.726 210.063 154.828 209.731 149.682C209.565 144.535 209.316 139.638 208.984 134.989C208.652 130.341 208.32 126.273 207.988 122.787C207.822 119.301 207.739 116.977 207.739 115.814V114.818Z" fill="#FFC04A"/>
<path d="M204.93 125.277C204.598 128.266 204.183 130.59 203.685 132.25C203.353 133.91 202.688 135.404 201.692 136.732C200.696 138.061 199.285 139.472 197.459 140.966C195.633 142.294 193.143 144.286 189.988 146.942C186.834 149.433 182.933 152.753 178.284 156.903C173.636 161.054 167.991 166.449 161.351 173.09C158.694 175.58 155.955 178.153 153.133 180.81C150.311 183.466 147.322 185.873 144.168 188.031C141.18 190.023 138.025 191.684 134.705 193.012C131.385 194.34 127.898 195.004 124.246 195.004C117.107 195.004 111.878 192.597 108.558 187.782C105.237 182.968 103.577 177.406 103.577 171.098C103.577 166.947 103.66 163.461 103.826 160.639C104.158 157.816 104.822 154.164 105.818 149.682C103.992 148.021 102.415 146.61 101.087 145.448C99.7588 144.12 99.0947 142.377 99.0947 140.219C99.0947 138.227 99.5098 136.898 100.34 136.234C101.336 135.57 102.415 135.155 103.577 134.989C104.905 134.657 106.15 134.325 107.313 133.993C108.475 133.661 109.305 132.997 109.803 132.001C110.135 131.005 110.716 129.179 111.546 126.522C112.542 123.866 113.538 121.127 114.534 118.305C115.53 115.316 116.443 112.577 117.273 110.087C118.27 107.431 118.934 105.604 119.266 104.608C120.428 101.786 121.673 98.9639 123.001 96.1416C124.495 93.1533 126.155 90.4971 127.981 88.1729C129.974 85.8486 132.215 83.9395 134.705 82.4453C137.361 80.9512 140.433 80.2041 143.919 80.2041C145.911 80.2041 148.318 81.1172 151.141 82.9434C154.129 84.7695 156.951 87.0107 159.607 89.667C162.264 92.1572 164.505 94.8135 166.331 97.6357C168.157 100.458 169.07 102.865 169.07 104.857C169.07 107.348 168.489 109.672 167.327 111.83C166.165 113.822 164.671 115.731 162.845 117.558C161.185 119.218 159.358 120.795 157.366 122.289C155.374 123.783 153.548 125.194 151.888 126.522C151.722 126.522 151.39 126.688 150.892 127.021C150.394 127.353 149.979 127.602 149.646 127.768C149.48 127.934 149.065 128.349 148.401 129.013C147.903 129.511 147.322 130.092 146.658 130.756C145.994 131.42 145.33 132.084 144.666 132.748C144.168 133.412 143.836 133.827 143.67 133.993C143.172 134.491 142.176 135.321 140.682 136.483C139.354 137.479 137.859 138.642 136.199 139.97C134.539 141.132 132.962 142.294 131.468 143.456C130.14 144.452 129.227 145.116 128.729 145.448L127.732 147.44C127.4 148.104 127.068 149.599 126.736 151.923C126.57 154.081 126.321 156.571 125.989 159.394C125.657 162.216 125.325 165.121 124.993 168.109C124.827 170.932 124.744 173.256 124.744 175.082C124.744 175.248 124.827 175.414 124.993 175.58C125.325 175.912 125.574 176.078 125.74 176.078C127.068 176.078 128.313 175.497 129.476 174.335C130.638 173.173 131.883 172.343 133.211 171.845L173.055 134.989L183.265 119.301C184.095 118.139 185.672 116.894 187.996 115.565C190.486 114.071 192.977 113.324 195.467 113.324C197.957 113.158 200.115 113.905 201.941 115.565C203.934 117.226 204.93 120.463 204.93 125.277ZM150.145 105.854C150.975 105.189 151.307 104.193 151.141 102.865C150.975 101.537 150.477 100.375 149.646 99.3789C148.982 98.3828 148.069 97.8018 146.907 97.6357C145.745 97.3037 144.666 97.8848 143.67 99.3789C143.172 100.043 142.259 101.371 140.931 103.363C139.769 105.355 138.523 107.431 137.195 109.589C136.033 111.581 135.037 113.324 134.207 114.818C133.377 116.312 133.211 116.894 133.709 116.562L150.145 105.854Z" fill="#FFC04A"/>
<path d="M71.1348 217.665C68.6445 207.704 66.8184 197.162 65.6562 186.039C64.6602 174.75 63.9961 164.208 63.6641 154.413C62.1699 155.243 60.9248 156.571 59.9287 158.398C58.9326 160.058 58.0195 161.884 57.1895 163.876C56.5254 165.702 55.7783 167.611 54.9482 169.604C54.1182 171.43 53.1221 173.007 51.96 174.335C48.1416 178.651 43.9912 182.636 39.5088 186.288C35.0264 189.774 29.7139 191.518 23.5713 191.518C18.5908 191.518 13.6104 190.439 8.62988 188.28C3.81543 186.122 -0.583984 183.3 -4.56836 179.814C-8.38672 176.161 -11.541 172.011 -14.0313 167.362C-16.3555 162.714 -17.5176 157.816 -17.5176 152.67C-17.5176 145.531 -16.3555 138.31 -14.0313 131.005C-11.707 123.534 -8.88477 116.645 -5.56445 110.336C-4.90039 109.174 -3.9043 107.514 -2.57617 105.356C-1.08203 103.031 0.412109 100.707 1.90625 98.3829C3.56641 96.0587 5.06055 93.9835 6.38867 92.1573C7.7168 90.1651 8.62988 88.92 9.12793 88.422L36.2715 59.7843C39.9238 55.9659 44.4893 53.2266 49.9678 51.5665C55.6123 49.7403 60.8418 48.6612 65.6562 48.3292C68.1465 47.9972 70.2217 48.4122 71.8818 49.5743C73.542 50.5704 74.3721 52.3136 74.3721 54.8038C74.3721 56.796 73.542 58.3731 71.8818 59.5352C70.3877 60.5313 68.5615 61.3614 66.4033 62.0255C64.2451 62.6895 62.0039 63.3536 59.6797 64.0177C57.3555 64.5157 55.5293 65.1798 54.2012 66.0098C45.4023 73.1485 37.4336 81.2003 30.2949 90.1651C23.1562 98.9639 16.7646 108.178 11.1201 117.807C9.29395 123.617 7.38477 129.179 5.39258 134.491C3.40039 139.804 2.4043 145.614 2.4043 151.923C2.4043 152.421 2.4043 153.583 2.4043 155.409C2.57031 157.069 2.65332 158.149 2.65332 158.647C4.31348 162.631 6.80371 166.283 10.124 169.604C13.6104 172.924 17.6777 174.584 22.3262 174.584C24.6504 174.584 27.0576 173.837 29.5479 172.343C32.0381 170.849 33.9473 169.023 35.2754 166.864C35.9395 166.034 37.1016 164.374 38.7617 161.884C40.4219 159.394 42.082 156.737 43.7422 153.915C45.5684 151.093 47.2285 148.437 48.7227 145.946C50.3828 143.456 51.4619 141.713 51.96 140.717C52.458 139.721 53.1221 138.476 53.9521 136.982C54.9482 135.321 55.7783 133.744 56.4424 132.25C57.2725 130.756 57.9365 129.428 58.4346 128.266C59.0986 126.938 59.4307 126.191 59.4307 126.024V125.028C57.1064 125.692 54.7822 126.274 52.458 126.772C50.1338 127.104 47.7266 127.27 45.2363 127.27C43.7422 127.27 42.082 127.187 40.2559 127.021C38.5957 126.689 36.9355 126.191 35.2754 125.526C33.7812 124.862 32.4531 123.949 31.291 122.787C30.2949 121.625 29.7969 120.048 29.7969 118.056C29.7969 117.226 29.8799 116.23 30.0459 115.067C30.2119 113.905 30.5439 112.992 31.042 112.328C32.3701 111.166 34.1133 110.336 36.2715 109.838C38.5957 109.174 41.0029 108.759 43.4932 108.593C46.1494 108.261 48.7227 108.012 51.2129 107.846C53.8691 107.514 56.2764 106.933 58.4346 106.103C60.2607 105.439 62.4189 104.608 64.9092 103.612C67.3994 102.45 69.9727 101.371 72.6289 100.375C75.4512 99.213 78.2734 98.2169 81.0957 97.3868C83.918 96.5567 86.4912 95.9757 88.8154 95.6436C89.3135 95.6436 89.9775 95.8097 90.8076 96.1417C91.8037 96.4737 92.7998 96.8888 93.7959 97.3868C94.792 97.8848 95.6221 98.4659 96.2861 99.13C96.9502 99.628 97.2822 100.126 97.2822 100.624C97.2822 104.276 96.2861 106.85 94.2939 108.344C92.3018 109.672 89.7285 111.332 86.5742 113.324C87.0723 119.965 86.8232 126.606 85.8271 133.246C84.9971 139.887 84.582 146.527 84.582 153.168C84.582 161.137 84.748 169.272 85.0801 177.572C85.4121 185.873 86.2422 193.925 87.5703 201.728C87.7363 202.06 87.9854 202.89 88.3174 204.218C88.6494 205.712 88.9814 207.206 89.3135 208.7C89.8115 210.194 90.2266 211.606 90.5586 212.934C90.8906 214.262 91.0566 215.092 91.0566 215.424V215.922C91.0566 218.246 90.1436 220.487 88.3174 222.646C86.6572 224.97 84.665 226.132 82.3408 226.132C79.8506 226.132 77.4434 225.302 75.1191 223.642C72.9609 221.982 71.6328 219.989 71.1348 217.665Z" fill="#FFC04A"/>
<path d="M1078.87 342.292C1078.54 336.315 1077.96 328.347 1077.13 318.386C1076.46 308.259 1075.63 297.8 1074.64 287.009C1073.81 276.218 1072.89 266.008 1071.9 256.379C1070.9 246.75 1070.07 239.279 1069.41 233.967C1069.41 231.809 1070.4 230.397 1072.39 229.733C1074.39 229.069 1076.3 228.737 1078.12 228.737C1080.45 228.737 1082.85 229.401 1085.34 230.729C1088 232.058 1089.66 233.884 1090.32 236.208C1090.32 236.872 1090.41 238.117 1090.57 239.943C1090.74 241.604 1090.82 243.347 1090.82 245.173C1090.99 246.999 1091.15 248.825 1091.32 250.651C1091.49 252.312 1091.57 253.474 1091.57 254.138C1091.57 255.134 1091.57 255.881 1091.57 256.379C1091.57 256.877 1091.57 257.375 1091.57 257.873C1091.57 258.205 1091.65 258.62 1091.82 259.118C1091.98 259.616 1092.23 260.446 1092.57 261.608C1092.9 261.276 1093.23 260.861 1093.56 260.363C1094.06 259.865 1094.39 259.533 1094.56 259.367C1097.21 255.549 1099.79 252.229 1102.28 249.406C1104.77 246.418 1107.34 243.679 1110 241.188C1112.65 238.532 1115.56 235.793 1118.71 232.971C1122.03 229.982 1125.85 226.579 1130.17 222.761C1131.16 221.931 1131.91 221.35 1132.41 221.018C1132.91 220.52 1133.32 220.188 1133.65 220.021C1134.15 219.689 1134.65 219.523 1135.15 219.523C1135.65 219.357 1136.31 219.274 1137.14 219.274C1139.96 219.274 1142.79 220.271 1145.61 222.263C1148.6 224.089 1150.09 226.662 1150.09 229.982C1150.09 231.145 1149.67 232.39 1148.84 233.718C1148.01 234.88 1147.02 236.042 1145.86 237.204C1144.69 238.2 1143.45 239.113 1142.12 239.943C1140.96 240.773 1139.88 241.354 1138.88 241.687C1134.57 245.505 1130 249.904 1125.19 254.885C1120.37 259.699 1115.89 264.929 1111.74 270.573C1107.59 276.218 1104.19 282.111 1101.53 288.254C1098.87 294.396 1097.55 300.539 1097.55 306.682C1097.55 312.326 1097.96 317.888 1098.79 323.366C1099.62 328.845 1100.04 334.406 1100.04 340.051V348.767C1098.71 350.095 1097.55 351.174 1096.55 352.004C1095.55 352.834 1094.14 353.249 1092.32 353.249C1089.49 353.249 1086.75 352.087 1084.1 349.763C1081.44 347.272 1079.7 344.782 1078.87 342.292Z" fill="#FFC04A"/>
<path d="M1046.49 343.537C1044.83 326.936 1043.42 312.741 1042.25 300.954C1041.09 289.167 1040.09 279.289 1039.26 271.32C1038.43 263.352 1037.69 257.043 1037.02 252.395C1036.53 247.58 1036.11 244.011 1035.78 241.687C1035.45 239.196 1035.2 237.536 1035.03 236.706C1034.87 235.876 1034.78 235.378 1034.78 235.212V234.216C1034.78 232.39 1035.53 230.896 1037.02 229.733C1038.68 228.405 1040.34 227.741 1042 227.741C1044.49 227.741 1047.15 228.156 1049.97 228.986C1052.96 229.816 1054.95 231.56 1055.95 234.216C1057.44 242.351 1058.44 250.568 1058.94 258.869C1059.6 267.17 1060.1 275.471 1060.43 283.771C1060.93 291.906 1061.51 300.124 1062.17 308.425C1063 316.726 1064.42 324.943 1066.41 333.078C1066.41 333.41 1066.49 334.074 1066.66 335.07C1066.99 336.066 1067.24 337.146 1067.4 338.308C1067.74 339.47 1067.99 340.549 1068.15 341.545C1068.32 342.541 1068.4 343.205 1068.4 343.537V344.035C1068.4 344.201 1068.48 344.367 1068.65 344.533C1068.65 346.525 1067.74 348.518 1065.91 350.51C1064.08 352.502 1062.17 353.332 1060.18 353C1059.68 352.834 1058.44 352.585 1056.45 352.253C1054.62 351.755 1053.38 351.34 1052.71 351.008C1052.21 350.842 1051.55 350.51 1050.72 350.012C1049.89 349.348 1049.06 348.684 1048.23 348.02C1047.57 347.355 1046.98 346.608 1046.49 345.778C1045.99 344.948 1045.99 344.201 1046.49 343.537ZM1032.54 161.999C1032.54 160.837 1033.45 159.841 1035.28 159.011C1037.27 158.015 1038.77 157.517 1039.76 157.517C1042.25 157.517 1044.99 158.264 1047.98 159.758C1051.13 161.086 1052.71 163.161 1052.71 165.983C1052.71 168.806 1052.3 170.715 1051.47 171.711C1050.8 172.707 1049.06 173.205 1046.24 173.205C1043.25 173.205 1040.18 172.209 1037.02 170.217C1034.04 168.225 1032.54 165.485 1032.54 161.999Z" fill="#FFC04A"/>
<path d="M948.112 341.047C947.116 337.228 944.211 327.517 939.396 311.911C934.582 296.14 927.858 273.395 919.226 243.679C919.226 243.347 919.06 242.683 918.728 241.686C918.562 240.524 918.479 239.777 918.479 239.445C918.811 237.453 920.305 236.291 922.961 235.959C925.617 235.461 927.609 235.295 928.938 235.461C932.59 235.959 935.246 237.121 936.906 238.947C938.732 240.773 940.227 243.43 941.389 246.916L955.832 294.479L956.828 295.725C958.82 292.404 959.982 288.586 960.314 284.269C960.646 279.953 961.062 275.803 961.56 271.818C962.224 267.668 963.386 263.933 965.046 260.612C966.706 257.292 969.86 254.968 974.509 253.64C975.505 253.64 976.584 253.889 977.746 254.387C978.908 254.719 979.987 255.3 980.983 256.13C982.146 256.794 983.142 257.624 983.972 258.62C984.802 259.45 985.383 260.363 985.715 261.359L999.162 304.44L1001.9 308.176C1002.57 305.187 1003.4 300.373 1004.39 293.732C1005.55 287.092 1006.63 280.202 1007.63 273.063C1008.79 265.759 1009.79 259.035 1010.62 252.893C1011.45 246.584 1012.03 242.268 1012.36 239.943C1012.36 239.611 1012.36 239.03 1012.36 238.2C1012.53 237.37 1012.61 236.789 1012.61 236.457C1013.94 234.963 1015.76 233.884 1018.09 233.22C1020.41 232.39 1022.49 232.141 1024.31 232.473C1024.98 232.639 1025.81 233.054 1026.8 233.718C1027.97 234.216 1029.04 234.963 1030.04 235.959C1031.04 236.789 1031.78 237.702 1032.28 238.698C1032.95 239.694 1033.28 240.607 1033.28 241.437L1019.08 343.537C1018.92 344.533 1018.34 345.363 1017.34 346.027C1016.34 346.525 1015.18 347.023 1013.85 347.521C1012.69 347.853 1011.45 348.103 1010.12 348.269C1008.96 348.269 1008.04 348.269 1007.38 348.269C1003.4 346.774 999.909 344.367 996.921 341.047C994.099 337.561 991.525 333.742 989.201 329.592C987.043 325.441 985.051 321.208 983.225 316.892C981.564 312.409 979.738 308.425 977.746 304.938L976.75 304.689C975.588 305.852 974.592 308.425 973.762 312.409C973.098 316.394 972.517 320.627 972.019 325.109C971.521 329.592 971.105 333.659 970.773 337.311C970.441 340.798 970.275 342.707 970.275 343.039C969.943 345.363 968.366 347.189 965.544 348.518C962.888 349.846 960.48 350.344 958.322 350.012C955.998 349.68 953.923 348.601 952.097 346.774C950.437 344.782 949.108 342.873 948.112 341.047Z" fill="#FFC04A"/>
<path d="M1610.58 282.277C1610.25 285.266 1609.83 287.59 1609.33 289.25C1609 290.91 1608.34 292.404 1607.34 293.732C1606.34 295.061 1604.93 296.472 1603.11 297.966C1601.28 299.294 1598.79 301.286 1595.64 303.942C1592.48 306.433 1588.58 309.753 1583.93 313.903C1579.28 318.054 1573.64 323.449 1567 330.09C1564.34 332.58 1561.6 335.153 1558.78 337.81C1555.96 340.466 1552.97 342.873 1549.82 345.031C1546.83 347.023 1543.67 348.684 1540.35 350.012C1537.03 351.34 1533.55 352.004 1529.89 352.004C1522.75 352.004 1517.53 349.597 1514.21 344.782C1510.88 339.968 1509.22 334.406 1509.22 328.098C1509.22 323.947 1509.31 320.461 1509.47 317.639C1509.81 314.816 1510.47 311.164 1511.47 306.682C1509.64 305.021 1508.06 303.61 1506.73 302.448C1505.41 301.12 1504.74 299.377 1504.74 297.219C1504.74 295.227 1505.16 293.898 1505.99 293.234C1506.98 292.57 1508.06 292.155 1509.22 291.989C1510.55 291.657 1511.8 291.325 1512.96 290.993C1514.12 290.661 1514.95 289.997 1515.45 289.001C1515.78 288.005 1516.36 286.179 1517.19 283.522C1518.19 280.866 1519.19 278.127 1520.18 275.305C1521.18 272.316 1522.09 269.577 1522.92 267.087C1523.92 264.431 1524.58 262.604 1524.91 261.608C1526.08 258.786 1527.32 255.964 1528.65 253.142C1530.14 250.153 1531.8 247.497 1533.63 245.173C1535.62 242.849 1537.86 240.939 1540.35 239.445C1543.01 237.951 1546.08 237.204 1549.57 237.204C1551.56 237.204 1553.97 238.117 1556.79 239.943C1559.78 241.77 1562.6 244.011 1565.25 246.667C1567.91 249.157 1570.15 251.813 1571.98 254.636C1573.8 257.458 1574.72 259.865 1574.72 261.857C1574.72 264.348 1574.14 266.672 1572.97 268.83C1571.81 270.822 1570.32 272.731 1568.49 274.558C1566.83 276.218 1565.01 277.795 1563.01 279.289C1561.02 280.783 1559.2 282.194 1557.54 283.522C1557.37 283.522 1557.04 283.688 1556.54 284.021C1556.04 284.353 1555.63 284.602 1555.29 284.768C1555.13 284.934 1554.71 285.349 1554.05 286.013C1553.55 286.511 1552.97 287.092 1552.31 287.756C1551.64 288.42 1550.98 289.084 1550.31 289.748C1549.82 290.412 1549.48 290.827 1549.32 290.993C1548.82 291.491 1547.82 292.321 1546.33 293.483C1545 294.479 1543.51 295.642 1541.85 296.97C1540.19 298.132 1538.61 299.294 1537.12 300.456C1535.79 301.452 1534.87 302.116 1534.38 302.448L1533.38 304.44C1533.05 305.104 1532.72 306.599 1532.38 308.923C1532.22 311.081 1531.97 313.571 1531.64 316.394C1531.3 319.216 1530.97 322.121 1530.64 325.109C1530.47 327.932 1530.39 330.256 1530.39 332.082C1530.39 332.248 1530.47 332.414 1530.64 332.58C1530.97 332.912 1531.22 333.078 1531.39 333.078C1532.72 333.078 1533.96 332.497 1535.12 331.335C1536.29 330.173 1537.53 329.343 1538.86 328.845L1578.7 291.989L1588.91 276.301C1589.74 275.139 1591.32 273.894 1593.64 272.565C1596.13 271.071 1598.62 270.324 1601.11 270.324C1603.6 270.158 1605.76 270.905 1607.59 272.565C1609.58 274.226 1610.58 277.463 1610.58 282.277ZM1555.79 262.854C1556.62 262.189 1556.95 261.193 1556.79 259.865C1556.62 258.537 1556.12 257.375 1555.29 256.379C1554.63 255.383 1553.72 254.802 1552.55 254.636C1551.39 254.304 1550.31 254.885 1549.32 256.379C1548.82 257.043 1547.91 258.371 1546.58 260.363C1545.42 262.355 1544.17 264.431 1542.84 266.589C1541.68 268.581 1540.68 270.324 1539.85 271.818C1539.02 273.312 1538.86 273.894 1539.36 273.562L1555.79 262.854Z" fill="#FFC04A"/>
<path d="M1438.04 439.909C1437.38 438.083 1437.38 436.008 1438.04 433.684C1438.87 431.359 1440.45 429.865 1442.78 429.201C1446.59 430.861 1450.58 431.94 1454.73 432.438C1458.88 432.937 1463.03 433.02 1467.18 432.688C1471.5 432.355 1475.73 431.691 1479.88 430.695C1484.03 429.699 1488.01 428.537 1491.83 427.209C1495.65 424.055 1498.31 419.904 1499.8 414.758C1501.3 409.777 1501.88 402.888 1501.54 394.089C1501.21 385.456 1500.05 374.582 1498.06 361.467C1496.23 348.518 1493.83 332.58 1490.84 313.654C1490.84 313.156 1490.84 312.409 1490.84 311.413C1491 310.417 1491 309.504 1490.84 308.674C1490.67 307.678 1490.34 306.931 1489.84 306.433C1489.51 305.935 1489.01 305.935 1488.35 306.433C1486.19 310.583 1483.62 315.148 1480.63 320.129C1477.8 324.943 1474.48 329.509 1470.67 333.825C1467.01 337.976 1462.86 341.462 1458.21 344.284C1453.73 347.106 1448.67 348.518 1443.02 348.518C1438.04 348.518 1433.64 347.106 1429.83 344.284C1426.17 341.296 1424.35 337.062 1424.35 331.584C1424.35 327.434 1425.18 322.204 1426.84 315.896C1428.66 309.587 1431.07 302.946 1434.06 295.974C1437.05 288.835 1440.53 281.779 1444.52 274.807C1448.5 267.834 1452.65 261.525 1456.97 255.881C1461.29 250.236 1465.69 245.671 1470.17 242.185C1474.65 238.532 1478.97 236.706 1483.12 236.706C1484.78 236.706 1486.94 237.038 1489.59 237.702C1492.41 238.2 1495.07 239.03 1497.56 240.192C1500.22 241.354 1502.46 242.683 1504.28 244.177C1506.28 245.671 1507.27 247.414 1507.27 249.406V269.577L1523.46 387.116C1523.46 393.757 1523.29 400.065 1522.96 406.042C1522.79 412.185 1521.72 417.829 1519.72 422.976C1517.9 428.122 1514.91 432.688 1510.76 436.672C1506.61 440.656 1500.63 443.894 1492.83 446.384C1491.83 446.882 1489.76 447.297 1486.6 447.629C1483.45 447.961 1479.8 448.21 1475.65 448.376C1471.66 448.542 1467.35 448.542 1462.7 448.376C1458.21 448.21 1454.06 447.795 1450.25 447.131C1446.59 446.633 1443.61 445.803 1441.28 444.641C1438.96 443.479 1437.88 441.901 1438.04 439.909ZM1476.89 258.869C1475.23 260.695 1472.99 263.601 1470.17 267.585C1467.51 271.569 1464.77 275.969 1461.95 280.783C1459.13 285.598 1456.31 290.661 1453.48 295.974C1450.83 301.12 1448.67 305.935 1447.01 310.417C1445.35 314.899 1444.27 318.718 1443.77 321.872C1443.44 325.026 1444.19 326.936 1446.01 327.6C1449.5 325.773 1453.23 322.785 1457.22 318.635C1461.2 314.318 1464.94 309.587 1468.42 304.44C1472.08 299.128 1475.23 293.732 1477.89 288.254C1480.71 282.609 1482.62 277.546 1483.62 273.063C1484.78 268.581 1484.86 265.012 1483.86 262.355C1483.03 259.533 1480.71 258.371 1476.89 258.869Z" fill="#FFC04A"/>
<path d="M1371.1 342.292C1370.76 336.315 1370.18 328.347 1369.35 318.386C1368.69 308.259 1367.86 297.8 1366.86 287.009C1366.03 276.218 1365.12 266.008 1364.12 256.379C1363.13 246.75 1362.3 239.279 1361.63 233.967C1361.63 231.809 1362.63 230.397 1364.62 229.733C1366.61 229.069 1368.52 228.737 1370.35 228.737C1372.67 228.737 1375.08 229.401 1377.57 230.729C1380.23 232.058 1381.89 233.884 1382.55 236.208C1382.55 236.872 1382.63 238.117 1382.8 239.943C1382.97 241.604 1383.05 243.347 1383.05 245.173C1383.21 246.999 1383.38 248.825 1383.55 250.651C1383.71 252.312 1383.8 253.474 1383.8 254.138C1383.8 255.134 1383.8 255.881 1383.8 256.379C1383.8 256.877 1383.8 257.375 1383.8 257.873C1383.8 258.205 1383.88 258.62 1384.04 259.118C1384.21 259.616 1384.46 260.446 1384.79 261.608C1385.12 261.276 1385.46 260.861 1385.79 260.363C1386.29 259.865 1386.62 259.533 1386.78 259.367C1389.44 255.549 1392.01 252.229 1394.5 249.406C1396.99 246.418 1399.57 243.679 1402.22 241.188C1404.88 238.532 1407.79 235.793 1410.94 232.971C1414.26 229.982 1418.08 226.579 1422.39 222.761C1423.39 221.931 1424.14 221.35 1424.64 221.018C1425.13 220.52 1425.55 220.188 1425.88 220.021C1426.38 219.689 1426.88 219.523 1427.38 219.523C1427.87 219.357 1428.54 219.274 1429.37 219.274C1432.19 219.274 1435.01 220.271 1437.83 222.263C1440.82 224.089 1442.32 226.662 1442.32 229.982C1442.32 231.145 1441.9 232.39 1441.07 233.718C1440.24 234.88 1439.25 236.042 1438.08 237.204C1436.92 238.2 1435.68 239.113 1434.35 239.943C1433.19 240.773 1432.11 241.354 1431.11 241.687C1426.79 245.505 1422.23 249.904 1417.41 254.885C1412.6 259.699 1408.12 264.929 1403.97 270.573C1399.82 276.218 1396.41 282.111 1393.76 288.254C1391.1 294.396 1389.77 300.539 1389.77 306.682C1389.77 312.326 1390.19 317.888 1391.02 323.366C1391.85 328.845 1392.26 334.406 1392.26 340.051V348.767C1390.93 350.095 1389.77 351.174 1388.78 352.004C1387.78 352.834 1386.37 353.249 1384.54 353.249C1381.72 353.249 1378.98 352.087 1376.33 349.763C1373.67 347.272 1371.93 344.782 1371.1 342.292Z" fill="#FFC04A"/>
<path d="M1376.12 282.277C1375.78 285.266 1375.37 287.59 1374.87 289.25C1374.54 290.91 1373.88 292.404 1372.88 293.732C1371.88 295.061 1370.47 296.472 1368.65 297.966C1366.82 299.294 1364.33 301.286 1361.17 303.942C1358.02 306.433 1354.12 309.753 1349.47 313.903C1344.82 318.054 1339.18 323.449 1332.54 330.09C1329.88 332.58 1327.14 335.153 1324.32 337.81C1321.5 340.466 1318.51 342.873 1315.35 345.031C1312.37 347.023 1309.21 348.684 1305.89 350.012C1302.57 351.34 1299.08 352.004 1295.43 352.004C1288.29 352.004 1283.06 349.597 1279.74 344.782C1276.42 339.968 1274.76 334.406 1274.76 328.098C1274.76 323.947 1274.85 320.461 1275.01 317.639C1275.34 314.816 1276.01 311.164 1277 306.682C1275.18 305.021 1273.6 303.61 1272.27 302.448C1270.95 301.12 1270.28 299.377 1270.28 297.219C1270.28 295.227 1270.7 293.898 1271.53 293.234C1272.52 292.57 1273.6 292.155 1274.76 291.989C1276.09 291.657 1277.34 291.325 1278.5 290.993C1279.66 290.661 1280.49 289.997 1280.99 289.001C1281.32 288.005 1281.9 286.179 1282.73 283.522C1283.73 280.866 1284.72 278.127 1285.72 275.305C1286.72 272.316 1287.63 269.577 1288.46 267.087C1289.46 264.431 1290.12 262.604 1290.45 261.608C1291.61 258.786 1292.86 255.964 1294.19 253.142C1295.68 250.153 1297.34 247.497 1299.17 245.173C1301.16 242.849 1303.4 240.939 1305.89 239.445C1308.55 237.951 1311.62 237.204 1315.11 237.204C1317.1 237.204 1319.5 238.117 1322.33 239.943C1325.32 241.77 1328.14 244.011 1330.79 246.667C1333.45 249.157 1335.69 251.813 1337.52 254.636C1339.34 257.458 1340.26 259.865 1340.26 261.857C1340.26 264.348 1339.68 266.672 1338.51 268.83C1337.35 270.822 1335.86 272.731 1334.03 274.558C1332.37 276.218 1330.54 277.795 1328.55 279.289C1326.56 280.783 1324.73 282.194 1323.07 283.522C1322.91 283.522 1322.58 283.688 1322.08 284.021C1321.58 284.353 1321.17 284.602 1320.83 284.768C1320.67 284.934 1320.25 285.349 1319.59 286.013C1319.09 286.511 1318.51 287.092 1317.84 287.756C1317.18 288.42 1316.52 289.084 1315.85 289.748C1315.35 290.412 1315.02 290.827 1314.86 290.993C1314.36 291.491 1313.36 292.321 1311.87 293.483C1310.54 294.479 1309.05 295.642 1307.39 296.97C1305.73 298.132 1304.15 299.294 1302.65 300.456C1301.33 301.452 1300.41 302.116 1299.92 302.448L1298.92 304.44C1298.59 305.104 1298.25 306.599 1297.92 308.923C1297.76 311.081 1297.51 313.571 1297.18 316.394C1296.84 319.216 1296.51 322.121 1296.18 325.109C1296.01 327.932 1295.93 330.256 1295.93 332.082C1295.93 332.248 1296.01 332.414 1296.18 332.58C1296.51 332.912 1296.76 333.078 1296.93 333.078C1298.25 333.078 1299.5 332.497 1300.66 331.335C1301.82 330.173 1303.07 329.343 1304.4 328.845L1344.24 291.989L1354.45 276.301C1355.28 275.139 1356.86 273.894 1359.18 272.565C1361.67 271.071 1364.16 270.324 1366.65 270.324C1369.14 270.158 1371.3 270.905 1373.13 272.565C1375.12 274.226 1376.12 277.463 1376.12 282.277ZM1321.33 262.854C1322.16 262.189 1322.49 261.193 1322.33 259.865C1322.16 258.537 1321.66 257.375 1320.83 256.379C1320.17 255.383 1319.26 254.802 1318.09 254.636C1316.93 254.304 1315.85 254.885 1314.86 256.379C1314.36 257.043 1313.45 258.371 1312.12 260.363C1310.96 262.355 1309.71 264.431 1308.38 266.589C1307.22 268.581 1306.22 270.324 1305.39 271.818C1304.56 273.312 1304.4 273.894 1304.9 273.562L1321.33 262.854Z" fill="#FFC04A"/>
<path d="M1182.91 302.448C1182.58 295.476 1182.17 288.171 1181.67 280.534C1181.34 272.897 1180.76 265.51 1179.93 258.371C1179.26 258.371 1178.18 258.371 1176.69 258.371C1175.19 258.205 1173.7 257.873 1172.21 257.375C1170.71 256.877 1169.38 256.296 1168.22 255.632C1167.06 254.802 1166.48 253.806 1166.48 252.644C1166.48 250.817 1166.89 248.991 1167.72 247.165C1168.72 245.173 1169.88 243.347 1171.21 241.687C1172.54 239.86 1173.87 238.283 1175.19 236.955C1176.69 235.461 1177.93 234.216 1178.93 233.22V195.368C1178.93 193.21 1180.01 191.633 1182.17 190.637C1184.33 189.475 1186.32 188.894 1188.14 188.894C1192.79 188.894 1195.78 189.973 1197.11 192.131C1198.44 194.289 1199.18 196.779 1199.35 199.602C1199.52 202.258 1199.52 204.831 1199.35 207.321C1199.35 209.812 1200.26 211.389 1202.09 212.053C1205.08 210.559 1207.9 208.981 1210.56 207.321C1213.21 205.661 1215.79 204.167 1218.28 202.839C1220.93 201.511 1223.59 200.432 1226.24 199.602C1229.07 198.771 1232.05 198.356 1235.21 198.356C1236.7 198.356 1238.28 198.522 1239.94 198.854C1241.77 199.187 1243.43 199.768 1244.92 200.598C1246.42 201.262 1247.66 202.258 1248.66 203.586C1249.65 204.748 1250.15 206.325 1250.15 208.317C1250.15 211.97 1249.65 215.373 1248.66 218.527C1247.66 221.516 1246.42 224.504 1244.92 227.492C1243.43 230.314 1241.85 233.137 1240.19 235.959C1238.53 238.781 1237.04 241.687 1235.71 244.675C1236.37 244.675 1237.62 244.841 1239.44 245.173C1241.27 245.339 1243.18 245.505 1245.17 245.671C1247.16 245.837 1249.07 246.086 1250.9 246.418C1252.72 246.584 1253.97 246.667 1254.63 246.667C1257.29 247.165 1260.36 247.995 1263.85 249.157C1267.5 250.319 1270.82 251.896 1273.81 253.889C1276.96 255.881 1279.62 258.288 1281.78 261.11C1283.93 263.767 1285.01 266.838 1285.01 270.324C1285.01 274.143 1284.27 277.961 1282.77 281.779C1281.44 285.598 1279.78 289.001 1277.79 291.989C1277.13 292.985 1276.13 294.396 1274.8 296.223C1273.48 298.049 1272.15 299.875 1270.82 301.701C1269.49 303.527 1268.25 305.188 1267.08 306.682C1266.09 308.01 1265.51 308.757 1265.34 308.923L1217.78 350.012C1216.12 351.34 1214.71 352.253 1213.54 352.751C1212.38 353.083 1210.97 353.249 1209.31 353.249C1208.15 353.249 1206.41 353.166 1204.08 353C1201.92 352.668 1199.68 352.253 1197.36 351.755C1195.03 351.257 1192.96 350.593 1191.13 349.763C1189.47 348.933 1188.56 347.854 1188.39 346.525L1182.91 304.44V302.448ZM1207.32 331.086H1207.57C1208.4 331.086 1209.64 330.837 1211.3 330.339C1212.96 329.841 1214.04 329.343 1214.54 328.845C1215.2 328.347 1216.28 327.434 1217.78 326.105C1219.44 324.777 1221.18 323.366 1223.01 321.872C1224.83 320.378 1226.49 318.967 1227.99 317.639C1229.65 316.311 1230.89 315.397 1231.72 314.899C1234.54 312.575 1237.87 309.753 1241.68 306.433C1245.67 303.112 1249.4 299.626 1252.89 295.974C1256.38 292.155 1259.28 288.254 1261.61 284.27C1264.1 280.285 1265.34 276.384 1265.34 272.565C1265.34 270.075 1264.51 268.166 1262.85 266.838C1261.19 265.344 1259.12 264.182 1256.62 263.352C1254.3 262.521 1251.81 262.023 1249.15 261.857C1246.66 261.525 1244.51 261.359 1242.68 261.359C1239.19 261.359 1235.96 261.94 1232.97 263.103C1229.98 264.265 1227.16 265.759 1224.5 267.585C1221.84 269.411 1219.27 271.486 1216.78 273.811C1214.46 275.969 1212.05 278.127 1209.56 280.285C1209.06 280.783 1208.31 281.281 1207.32 281.779C1206.49 282.277 1205.66 282.858 1204.83 283.522C1204 284.187 1203.25 284.851 1202.59 285.515C1202.09 286.179 1201.92 286.926 1202.09 287.756L1207.32 331.086ZM1226.24 218.278C1225.91 218.444 1225.33 218.776 1224.5 219.274C1223.67 219.772 1222.84 220.354 1222.01 221.018C1221.18 221.682 1220.35 222.263 1219.52 222.761C1218.69 223.259 1218.11 223.591 1217.78 223.757C1217.78 223.757 1216.86 224.421 1215.04 225.749C1213.38 227.077 1211.47 228.571 1209.31 230.231C1207.32 231.892 1205.41 233.469 1203.58 234.963C1201.92 236.291 1201.09 237.038 1201.09 237.204V256.379H1202.09C1202.09 256.379 1202.59 255.798 1203.58 254.636C1204.58 253.474 1205.74 252.146 1207.07 250.651C1208.56 248.991 1209.97 247.331 1211.3 245.671C1212.63 244.011 1213.71 242.683 1214.54 241.687C1215.04 240.856 1215.95 239.528 1217.28 237.702C1218.77 235.876 1219.69 234.714 1220.02 234.216C1220.52 233.22 1221.18 231.975 1222.01 230.48C1222.84 228.986 1223.59 227.575 1224.25 226.247C1225.08 224.753 1225.75 223.508 1226.24 222.512C1226.91 221.35 1227.24 220.769 1227.24 220.769V218.278H1226.24Z" fill="#FFC04A"/>
</svg>
