<svg width="614" height="614" viewBox="0 0 614 614" fill="none" xmlns="http://www.w3.org/2000/svg">
<path d="M376.581 167.831C395.02 167.886 412.688 175.235 425.726 188.274C438.765 201.312 446.114 218.98 446.169 237.419V376.581C446.114 395.02 438.765 412.688 425.726 425.726C412.688 438.765 395.02 446.114 376.581 446.169H237.419C218.98 446.114 201.312 438.765 188.274 425.726C175.235 412.688 167.886 395.02 167.831 376.581V237.419C167.886 218.98 175.235 201.312 188.274 188.274C201.312 175.235 218.98 167.886 237.419 167.831H376.581ZM376.581 140H237.419C183.837 140 140 183.837 140 237.419V376.581C140 430.163 183.837 474 237.419 474H376.581C430.163 474 474 430.163 474 376.581V237.419C474 183.837 430.163 140 376.581 140Z" fill="#0D0D0D"/>
<path d="M397.107 237.572C392.975 237.572 388.935 236.353 385.499 234.069C382.063 231.785 379.385 228.539 377.804 224.74C376.223 220.942 375.809 216.763 376.615 212.731C377.421 208.699 379.411 204.995 382.333 202.088C385.255 199.181 388.978 197.201 393.031 196.399C397.084 195.597 401.285 196.009 405.102 197.582C408.92 199.155 412.183 201.82 414.479 205.238C416.775 208.656 418 212.675 418 216.786C418.006 219.517 417.469 222.223 416.422 224.747C415.374 227.272 413.835 229.566 411.894 231.497C409.952 233.428 407.647 234.959 405.109 236.002C402.572 237.044 399.852 237.578 397.107 237.572ZM306.572 251.424C317.592 251.424 328.365 254.675 337.527 260.766C346.69 266.857 353.832 275.514 358.049 285.643C362.266 295.772 363.369 306.918 361.219 317.67C359.069 328.423 353.763 338.3 345.971 346.052C338.178 353.804 328.251 359.084 317.442 361.223C306.634 363.362 295.431 362.264 285.25 358.068C275.069 353.873 266.367 346.768 260.245 337.652C254.123 328.537 250.855 317.819 250.855 306.856C250.871 292.159 256.746 278.069 267.192 267.677C277.637 257.285 291.8 251.44 306.572 251.424ZM306.572 223.712C290.043 223.712 273.886 228.588 260.142 237.724C246.399 246.86 235.687 259.846 229.362 275.038C223.036 290.231 221.381 306.948 224.606 323.077C227.831 339.205 235.79 354.02 247.478 365.648C259.166 377.276 274.057 385.194 290.268 388.402C306.48 391.611 323.283 389.964 338.554 383.671C353.825 377.378 366.877 366.721 376.06 353.048C385.244 339.375 390.145 323.3 390.145 306.856C390.145 284.805 381.34 263.657 365.667 248.064C349.994 232.472 328.737 223.712 306.572 223.712Z" fill="#0D0D0D"/>
<circle cx="307" cy="307" r="302" stroke="#0D0D0D" stroke-width="10"/>
</svg>
