<svg width="39" height="32" viewBox="0 0 39 32" fill="none" xmlns="http://www.w3.org/2000/svg">
<path fill-rule="evenodd" clip-rule="evenodd" d="M38.379 15.3147C33.6592 7.96839 33.6592 7.96839 33.6592 7.96839C33.0382 6.97228 31.7962 6.34971 30.4299 6.34971C25.7102 6.34971 25.7102 6.34971 25.7102 6.34971C25.7102 3.73492 25.7102 3.73492 25.7102 3.73492C25.7102 1.86722 24.0955 -0.125 21.8599 -0.125C3.85032 -0.000486372 3.85032 -0.000486372 3.85032 -0.000486372C1.86306 -0.000486372 0 1.86722 0 3.85944C0 17.3069 0 17.3069 0 17.3069C0 19.5482 1.86306 21.1668 3.85032 21.1668C3.85032 24.6532 3.85032 24.6532 3.85032 24.6532C3.85032 26.8945 5.46497 28.5131 7.32803 28.5131C8.94267 28.5131 8.94267 28.5131 8.94267 28.5131C9.56369 30.3808 11.1783 31.9995 13.6624 31.9995C15.8981 31.9995 17.7611 30.3808 18.1338 28.5131C24.8408 28.5131 24.8408 28.5131 24.8408 28.5131C25.2134 30.3808 27.0764 31.9995 29.3121 31.9995C31.7962 31.9995 33.7834 30.3808 34.0318 28.5131C35.6465 28.5131 35.6465 28.5131 35.6465 28.5131C37.5096 28.5131 39.1242 26.8945 39.1242 24.6532C39.1242 17.3069 39.1242 17.3069 39.1242 17.3069C39 16.6843 38.7516 15.9373 38.379 15.3147ZM3.85032 18.552C3.2293 18.552 2.60828 17.9295 2.60828 17.3069C2.48408 3.85944 2.48408 3.85944 2.48408 3.85944C2.48408 3.23687 3.1051 2.6143 3.72611 2.6143C21.8599 2.6143 21.8599 2.6143 21.8599 2.6143C22.8535 2.6143 23.1019 3.23687 23.1019 3.85944C23.1019 17.3069 23.1019 17.3069 23.1019 17.3069C23.1019 17.9295 22.7293 18.552 21.8599 18.552H3.85032ZM13.6624 29.7583C12.0478 29.7583 11.1783 28.5131 11.1783 27.1435C11.1783 25.8983 12.172 24.5287 13.6624 24.5287C14.9045 24.5287 15.8981 25.7738 15.8981 27.1435C15.8981 28.5131 14.9045 29.7583 13.6624 29.7583ZM29.1879 29.7583C27.9459 29.7583 26.9522 28.5131 26.9522 27.1435C26.9522 25.8983 27.9459 24.5287 29.1879 24.5287C30.8025 24.5287 31.672 25.7738 31.672 27.1435C31.7962 28.5131 30.8025 29.7583 29.1879 29.7583ZM36.5159 24.6532C36.5159 25.2758 36.1433 25.8983 35.5223 25.8983C33.9076 25.8983 33.9076 25.8983 33.9076 25.8983C33.6592 23.6571 31.7962 22.412 29.1879 22.412C26.9522 22.412 25.0892 23.6571 24.7166 25.8983C18.0096 25.8983 18.0096 25.8983 18.0096 25.8983C17.7611 23.6571 15.8981 22.412 13.6624 22.412C11.1783 22.412 9.56369 23.6571 8.94267 25.8983C7.32802 25.8983 7.32803 25.8983 7.32803 25.8983C6.70701 25.8983 6.33439 25.2758 6.33439 24.6532C6.33439 21.1668 6.33439 21.1668 6.33439 21.1668C21.8599 21.1668 21.8599 21.1668 21.8599 21.1668C24.0955 21.1668 25.7102 19.5482 25.7102 17.3069C25.7102 8.71547 25.7102 8.71547 25.7102 8.71547C30.4299 8.71547 30.4299 8.71547 30.4299 8.71547C31.051 8.71547 31.4236 9.08901 31.4236 9.33804C36.5159 16.6843 36.5159 16.6843 36.5159 16.6843C36.5159 17.0579 36.5159 17.0579 36.5159 17.3069V24.6532Z" fill="#E07A3D"/>
</svg>
