<svg width="43" height="23" viewBox="0 0 43 23" fill="none" xmlns="http://www.w3.org/2000/svg">
<rect width="43" height="23" fill="white"/>
<path d="M24.6851 5.82227H18.6865V16.6353H24.6851V5.82227Z" fill="#7673C0"/>
<path fill-rule="evenodd" clip-rule="evenodd" d="M19.0669 11.2309C19.0647 9.12055 20.0303 7.12642 21.6854 5.82344C18.8746 3.60774 14.8381 3.93048 12.4128 6.56484C9.98741 9.1992 9.98741 13.2607 12.4128 15.8951C14.8381 18.5295 18.8746 18.8522 21.6854 16.6365C20.0308 15.3339 19.0653 13.3406 19.0669 11.2309Z" fill="#EB001B"/>
<path fill-rule="evenodd" clip-rule="evenodd" d="M32.7763 11.2297C32.7756 13.8617 31.2772 16.2625 28.9169 17.4129C26.5567 18.5632 23.7489 18.2613 21.6855 16.6353C23.3394 15.3316 24.305 13.3385 24.305 11.2288C24.305 9.11894 23.3394 7.1259 21.6855 5.82223C23.7489 4.19504 26.5576 3.89244 28.9184 5.04293C31.2793 6.19343 32.7781 8.59504 32.7781 11.2278L32.7763 11.2297Z" fill="#00A1DF"/>
</svg>
