<svg width="43" height="23" viewBox="0 0 43 23" fill="none" xmlns="http://www.w3.org/2000/svg">
<rect width="43" height="23" fill="white"/>
<path d="M24.7307 5.82227H18.7129V16.6338H24.7307V5.82227Z" fill="#F47D20"/>
<path fill-rule="evenodd" clip-rule="evenodd" d="M19.0942 11.2273C19.0942 9.03415 20.1214 7.08067 21.721 5.82164C20.5511 4.90105 19.0751 4.35156 17.4707 4.35156C13.6726 4.35156 10.5938 7.43 10.5938 11.2273C10.5938 15.0249 13.6726 18.1031 17.4707 18.1031C19.0751 18.1031 20.5511 17.5538 21.721 16.6332C20.1214 15.3742 19.0942 13.4207 19.0942 11.2273Z" fill="#DE1F31"/>
<path fill-rule="evenodd" clip-rule="evenodd" d="M32.6343 15.488V15.2212H32.5647L32.4845 15.4047L32.4041 15.2212H32.3345V15.488H32.3838V15.2867L32.4589 15.4603H32.5099L32.5851 15.2863V15.488H32.6343ZM32.193 15.488V15.2666H32.2822V15.2216H32.0548V15.2666H32.1441V15.488H32.193ZM32.849 11.2273C32.849 15.0249 29.7702 18.1031 25.972 18.1031C24.3676 18.1031 22.8914 17.5538 21.7217 16.6332C23.3213 15.3742 24.3485 13.4207 24.3485 11.2273C24.3485 9.03415 23.3213 7.08067 21.7217 5.82164C22.8914 4.90105 24.3676 4.35156 25.972 4.35156C29.7702 4.35156 32.849 7.43 32.849 11.2273Z" fill="#F3A837"/>
</svg>
