<svg width="43" height="23" viewBox="0 0 43 23" fill="none" xmlns="http://www.w3.org/2000/svg">
<rect width="43" height="23" fill="white"/>
<path fill-rule="evenodd" clip-rule="evenodd" d="M9.81247 7.45898H7.49135C7.33251 7.45898 7.19742 7.58137 7.17265 7.74766L6.23388 14.06C6.21522 14.1845 6.30617 14.2968 6.4253 14.2968H7.53343C7.69227 14.2968 7.82734 14.1744 7.85212 14.0078L8.10531 12.3053C8.12975 12.1386 8.26516 12.0162 8.42367 12.0162H9.15846C10.6874 12.0162 11.5699 11.2315 11.8003 9.67659C11.9042 8.9963 11.8047 8.46179 11.5044 8.08744C11.1745 7.67639 10.5894 7.45898 9.81247 7.45898ZM10.0802 9.76442C9.95332 10.6477 9.31695 10.6477 8.70163 10.6477H8.35137L8.59709 8.9981C8.61168 8.89839 8.69314 8.82497 8.78817 8.82497H8.94871C9.36786 8.82497 9.76326 8.82497 9.96758 9.07837C10.0894 9.22954 10.1268 9.45415 10.0802 9.76442Z" fill="#253B80"/>
<path fill-rule="evenodd" clip-rule="evenodd" d="M17.251 9.43953H16.1071C16.0097 9.43953 15.9255 9.51591 15.9104 9.61961L15.8598 9.96255L15.7799 9.83825C15.5322 9.45301 14.98 9.32422 14.4289 9.32422C13.1649 9.32422 12.0853 10.3504 11.875 11.7899C11.7657 12.508 11.9211 13.1946 12.3011 13.6735C12.6497 14.1137 13.1485 14.2972 13.7419 14.2972C14.7603 14.2972 15.3251 13.5952 15.3251 13.5952L15.2741 13.9359C15.2549 14.0662 15.3485 14.183 15.4704 14.183H16.5008C16.6646 14.183 16.8029 14.0557 16.8287 13.8824L17.4469 9.68588C17.4664 9.55671 17.3732 9.43953 17.251 9.43953ZM15.6566 11.8259C15.5462 12.5263 15.0275 12.9966 14.366 12.9966C14.0339 12.9966 13.7684 12.8824 13.598 12.666C13.4289 12.4511 13.3647 12.1452 13.4185 11.8045C13.5215 11.11 14.0489 10.6245 14.7003 10.6245C15.0251 10.6245 15.2891 10.7401 15.4631 10.9584C15.6373 11.1789 15.7065 11.4867 15.6566 11.8259Z" fill="#253B80"/>
<path fill-rule="evenodd" clip-rule="evenodd" d="M23.4787 9.94531H22.3127C22.2014 9.94531 22.0969 9.99634 22.0338 10.0817L20.4255 12.2688L19.7438 10.1671C19.7009 10.0356 19.5695 9.94531 19.4206 9.94531H18.2748C18.1356 9.94531 18.0389 10.0709 18.0831 10.192L19.3676 13.6718L18.16 15.2455C18.065 15.3695 18.1607 15.5399 18.3247 15.5399H19.4894C19.6 15.5399 19.7034 15.4902 19.7661 15.4064L23.6446 10.2381C23.7374 10.1144 23.6421 9.94531 23.4787 9.94531Z" fill="#253B80"/>
<path fill-rule="evenodd" clip-rule="evenodd" d="M27.2629 7.45898H24.9412C24.7828 7.45898 24.6477 7.58136 24.6229 7.74766L23.6841 14.06C23.6654 14.1845 23.7564 14.2968 23.8748 14.2968H25.0661C25.1768 14.2968 25.2715 14.2112 25.2888 14.0945L25.5552 12.3053C25.5797 12.1386 25.7151 12.0162 25.8736 12.0162H26.6081C28.1375 12.0162 29.0196 11.2315 29.2504 9.67659C29.3546 8.9963 29.2545 8.46178 28.9541 8.08744C28.6245 7.67639 28.0397 7.45898 27.2629 7.45898ZM27.5306 9.76441C27.404 10.6477 26.7676 10.6477 26.1519 10.6477H25.802L26.0481 8.9981C26.0627 8.89839 26.1434 8.82497 26.2388 8.82497H26.3993C26.8182 8.82497 27.214 8.82497 27.4183 9.07837C27.5401 9.22954 27.5771 9.45414 27.5306 9.76441Z" fill="#179BD7"/>
<path fill-rule="evenodd" clip-rule="evenodd" d="M34.6769 9.43953H33.4067C33.2977 9.43953 33.2049 9.51591 33.1886 9.61961L33.1323 9.96255L33.043 9.83825C32.7679 9.45301 32.1547 9.32422 31.5422 9.32422C30.1378 9.32422 28.9385 10.3504 28.7049 11.7899C28.5838 12.508 28.7557 13.1946 29.1779 13.6735C29.5661 14.1137 30.1195 14.2972 30.7789 14.2972C31.9106 14.2972 32.5381 13.5952 32.5381 13.5952L32.4814 13.9359C32.4601 14.0662 32.5641 14.183 32.7004 14.183H33.8448C34.0261 14.183 34.1806 14.0557 34.2089 13.8824L34.8962 9.68588C34.9171 9.55671 34.8132 9.43953 34.6769 9.43953ZM32.9052 11.8259C32.7834 12.5263 32.2063 12.9966 31.4713 12.9966C31.1029 12.9966 30.8072 12.8824 30.6178 12.666C30.43 12.4511 30.3594 12.1452 30.4183 11.8045C30.5336 11.11 31.1188 10.6245 31.8426 10.6245C32.2036 10.6245 32.497 10.7401 32.6903 10.9584C32.8847 11.1789 32.9616 11.4867 32.9052 11.8259Z" fill="#179BD7"/>
<path fill-rule="evenodd" clip-rule="evenodd" d="M35.8857 7.63247L34.901 14.06C34.8816 14.1845 34.9757 14.2968 35.0981 14.2968H36.0881C36.2526 14.2968 36.3923 14.1744 36.4176 14.0078L37.3887 7.69617C37.4079 7.57164 37.3139 7.45898 37.1915 7.45898H36.0829C35.985 7.45934 35.9008 7.53277 35.8857 7.63247Z" fill="#179BD7"/>
</svg>
