<svg width="614" height="614" viewBox="0 0 614 614" fill="none" xmlns="http://www.w3.org/2000/svg">
<path d="M307.041 122C205.96 122 124 203.923 124 304.959C124 379.858 169.106 444.22 233.579 472.563C233.089 459.821 233.498 444.465 236.766 430.58C240.28 415.715 260.3 330.851 260.3 330.851C260.3 330.851 254.417 319.171 254.417 301.937C254.417 274.82 270.106 254.564 289.717 254.564C306.387 254.564 314.395 267.06 314.395 282.008C314.395 298.752 303.691 323.745 298.216 346.942C293.64 366.381 307.94 382.145 327.143 382.145C361.79 382.145 385.16 337.63 385.16 284.866C385.16 244.762 358.113 214.786 309.002 214.786C253.518 214.786 218.871 256.197 218.871 302.427C218.871 318.354 223.61 329.626 230.964 338.284C234.315 342.286 234.805 343.92 233.579 348.494C232.68 351.842 230.719 359.929 229.82 363.196C228.595 367.851 224.836 369.485 220.668 367.77C195.092 357.315 183.161 329.381 183.161 297.853C183.161 245.906 227.042 183.585 313.987 183.585C383.853 183.585 429.858 234.144 429.858 288.378C429.858 360.174 389.9 413.755 331.065 413.755C311.29 413.755 292.741 403.055 286.367 390.966C286.367 390.966 275.744 433.112 273.456 441.28C269.616 455.41 262.016 469.459 255.07 480.486C271.919 485.454 289.393 487.984 306.959 488C408.04 488 490 406.077 490 305.041C490 204.005 408.122 122 307.041 122Z" fill="#0D0D0D"/>
<circle cx="307" cy="307" r="302" stroke="#0D0D0D" stroke-width="10"/>
</svg>
