<svg width="33" height="26" viewBox="0 0 33 26" fill="none" xmlns="http://www.w3.org/2000/svg">
<g clip-path="url(#clip0_221_59)">
<path fill-rule="evenodd" clip-rule="evenodd" d="M25.8538 8.70039C25.5385 8.39688 25.3283 8.19455 24.8029 8.19455C23.9621 8.19455 23.9621 8.19455 23.9621 8.19455C23.1213 8.19455 22.9111 8.70039 22.9111 9.20622C22.9111 15.1751 22.9111 15.1751 22.9111 15.1751C22.9111 15.6809 23.2264 16.1868 23.9621 16.1868C28.0608 16.1868 28.0608 16.1868 28.0608 16.1868C28.5863 16.1868 29.1118 15.6809 29.1118 15.1751C29.1118 13.6576 29.1118 13.6576 29.1118 13.6576C29.1118 13.3541 29.1118 13.3541 28.7965 13.1517L25.8538 8.70039ZM28.0608 15.0739C23.9621 15.0739 23.9621 15.0739 23.9621 15.0739C23.9621 9.10505 23.9621 9.10505 23.9621 9.10505C24.8029 9.10505 24.8029 9.10505 24.8029 9.10505C28.0608 13.4552 28.0608 13.4552 28.0608 13.4552V15.0739Z" fill="#DE5A2B"/>
<path fill-rule="evenodd" clip-rule="evenodd" d="M32.4745 12.4436C28.4809 6.47471 28.4809 6.47471 28.4809 6.47471C27.9554 5.66537 26.9045 5.15953 25.7484 5.15953C21.7548 5.15953 21.7548 5.15953 21.7548 5.15953C21.7548 3.03502 21.7548 3.03502 21.7548 3.03502C21.7548 1.51751 20.3885 -0.101166 18.4968 -0.101166C3.25796 1.54227e-06 3.25796 1.54227e-06 3.25796 1.54227e-06C1.57643 1.54227e-06 0 1.51751 0 3.13619C0 14.0623 0 14.0623 0 14.0623C0 15.8833 1.57643 17.1984 3.25796 17.1984C3.25796 20.0311 3.25796 20.0311 3.25796 20.0311C3.25796 21.8521 4.6242 23.1673 6.20064 23.1673C7.56688 23.1673 7.56688 23.1673 7.56688 23.1673C8.09236 24.6848 9.4586 26 11.5605 26C13.4522 26 15.0287 24.6848 15.3439 23.1673C21.0191 23.1673 21.0191 23.1673 21.0191 23.1673C21.3344 24.6848 22.9108 26 24.8025 26C26.9045 26 28.586 24.6848 28.7962 23.1673C30.1624 23.1673 30.1624 23.1673 30.1624 23.1673C31.7389 23.1673 33.1051 21.8521 33.1051 20.0311C33.1051 14.0623 33.1051 14.0623 33.1051 14.0623C33 13.5564 32.7898 12.9494 32.4745 12.4436ZM3.25796 15.0739C2.73248 15.0739 2.20701 14.5681 2.20701 14.0623C2.10191 3.13619 2.10191 3.13619 2.10191 3.13619C2.10191 2.63035 2.62739 2.12451 3.15287 2.12451C18.4968 2.12451 18.4968 2.12451 18.4968 2.12451C19.3376 2.12451 19.5478 2.63035 19.5478 3.13619C19.5478 14.0623 19.5478 14.0623 19.5478 14.0623C19.5478 14.5681 19.2325 15.0739 18.4968 15.0739H3.25796ZM11.5605 24.179C10.1943 24.179 9.4586 23.1673 9.4586 22.0545C9.4586 21.0428 10.2994 19.93 11.5605 19.93C12.6115 19.93 13.4522 20.9416 13.4522 22.0545C13.4522 23.1673 12.6115 24.179 11.5605 24.179ZM24.6975 24.179C23.6465 24.179 22.8057 23.1673 22.8057 22.0545C22.8057 21.0428 23.6465 19.93 24.6975 19.93C26.0637 19.93 26.7994 20.9416 26.7994 22.0545C26.9045 23.1673 26.0637 24.179 24.6975 24.179ZM30.8981 20.0311C30.8981 20.537 30.5828 21.0428 30.0573 21.0428C28.6911 21.0428 28.6911 21.0428 28.6911 21.0428C28.4809 19.2218 26.9045 18.2101 24.6975 18.2101C22.8057 18.2101 21.2293 19.2218 20.914 21.0428C15.2389 21.0428 15.2389 21.0428 15.2389 21.0428C15.0287 19.2218 13.4522 18.2101 11.5605 18.2101C9.4586 18.2101 8.09236 19.2218 7.56688 21.0428C6.20064 21.0428 6.20064 21.0428 6.20064 21.0428C5.67516 21.0428 5.35987 20.537 5.35987 20.0311C5.35987 17.1984 5.35987 17.1984 5.35987 17.1984C18.4968 17.1984 18.4968 17.1984 18.4968 17.1984C20.3885 17.1984 21.7548 15.8833 21.7548 14.0623C21.7548 7.08171 21.7548 7.08171 21.7548 7.08171C25.7484 7.08171 25.7484 7.08171 25.7484 7.08171C26.2739 7.08171 26.5892 7.38521 26.5892 7.58755C30.8981 13.5564 30.8981 13.5564 30.8981 13.5564C30.8981 13.8599 30.8981 13.8599 30.8981 14.0623V20.0311Z" fill="#DE5A2B"/>
</g>
<defs>
<clipPath id="clip0_221_59">
<rect width="33" height="26" fill="white"/>
</clipPath>
</defs>
</svg>
