<svg width="248" height="143" viewBox="0 0 248 143" fill="none" xmlns="http://www.w3.org/2000/svg">
<path d="M1 77.3556C8.34484 76.6362 39.5999 77.0558 54.3094 77.3556C54.3094 77.3556 56.975 57.5726 62.0096 52.4773C67.0442 47.3819 64.3789 98.037 71.1907 98.037C78.0024 98.037 75.3369 44.0847 83.0372 44.0847C90.7374 44.0847 87.1835 140 99.9185 140C112.653 140 105.842 52.4773 112.653 52.4773C119.465 52.4773 115.911 92.0423 124.5 92.0423C133.089 92.0423 135.458 4.81932 143.158 3.02091C150.859 1.2225 156.486 116.021 165.074 116.021C173.663 116.021 171.294 56.9733 180.475 56.9733C189.656 56.9733 181.067 92.0423 189.656 92.0423C198.245 92.0423 189.952 77.3556 198.245 77.3556C206.537 77.3556 248 77.3556 248 77.3556" stroke="#FAF8F7" stroke-width="6"/>
</svg>
