<?xml version="1.0" encoding="utf-8"?>
<!-- Generator: Adobe Illustrator 23.0.1, SVG Export Plug-In . SVG Version: 6.00 Build 0)  -->
<svg version="1.1" id="Ebene_1" xmlns="http://www.w3.org/2000/svg" xmlns:xlink="http://www.w3.org/1999/xlink" x="0px" y="0px"
	 viewBox="0 0 337 85" style="enable-background:new 0 0 337 85;" xml:space="preserve">
<style type="text/css">
	.st0{fill:#0D0D0D;}
</style>
<g>
	<g>
		<path class="st0" d="M51.4,41.6H39.7c-0.5-2.4-1.7-3.8-3.8-3.8c-1.6,0-2.8,1.1-2.8,2.6c0,2,1.6,3.3,8.3,5c6.4,1.6,11,4.4,11,11.2
			c0,7.5-7.1,11-15.6,11c-9.6,0-16.1-4-17-11.9h11.7c0.7,2.7,2.8,4.5,5.3,4.5c2.1,0,3.8-0.9,3.8-2.7c0-2.2-2.2-3.5-8.5-5
			c-6.7-1.6-10.8-4.7-10.8-10.7c0-7,6.1-11.4,15.4-11.4C45.4,30.3,50.4,35.2,51.4,41.6z"/>
		<path class="st0" d="M68.7,51.9c0,1.2,0,2.5,0.1,3.4c0.3,3.6,1.4,4.4,7,4.1v7.4c-2.3,0.4-4.5,0.6-7,0.6c-8.8,0-11.4-2.7-11.8-8.1
			c-0.1-2-0.1-3.7-0.1-5.7V38.9h-5.6v-7.4h5.6v-9.1h11.9v9.1h7.8v7.4h-7.8V51.9z"/>
		<path class="st0" d="M111.9,48.9c0,11.3-7.4,18.5-18.9,18.5C81.4,67.4,74,60.2,74,48.9c0-11.4,7.4-18.5,18.9-18.5
			C104.5,30.3,111.9,37.5,111.9,48.9z M99.7,48.9c0-7.1-2.6-10.5-6.8-10.5s-6.8,3.4-6.8,10.5c0,7,2.6,10.5,6.8,10.5
			S99.7,55.9,99.7,48.9z"/>
		<path class="st0" d="M148.3,46.6v19.9h-11.9v-18c0-1.1,0-3-0.1-4.8c-0.3-3.4-2.1-5.3-5.7-5.3c-3.6,0-6.2,3.5-6.2,11.5v16.6h-11.9
			V31.3h11.9v5.5l3.2-4.4c2.2-1.3,4.7-2,7.9-2c7.3,0,11.5,3.4,12.5,9.6C148.2,41.7,148.3,43.7,148.3,46.6z"/>
		<path class="st0" d="M185.9,51.9h-24.6c0.6,5.9,3.2,7.5,6.5,7.5c3.4,0,5.4-1.7,5.9-4.4h11.7c-2,8-8.6,12.5-17.7,12.5
			c-10.1,0-18.1-6-18.1-18.4c0-10.3,7.1-18.7,18.8-18.7s17.7,9,17.7,18.1C186.1,49.5,186,50.7,185.9,51.9z M161.7,44.6h11.9
			c-0.7-4.2-2.7-6.2-5.9-6.2C164.7,38.4,162.5,40.2,161.7,44.6z"/>
		<path class="st0" d="M206.6,61.4l-1.5,3.7c-2.5,1.6-5.5,2.4-8.7,2.4c-5.8,0-11.3-3.6-11.3-10.4c0-7.5,7.1-12.1,19.1-12.1h2.2v-0.5
			c0-0.7,0-1.5-0.1-2.6c-0.2-1.8-1.7-3.4-4.2-3.4c-2.8,0-4.4,1.8-4.6,4.8l-11.2,0.1c0.1-8.3,7.4-12.9,16.3-12.9
			c11.2,0,15,5,15.5,11.4c0.1,1.8,0.2,3.8,0.2,6v9.9c0,2.6,0.1,5,0.7,8.9h-11.6L206.6,61.4z M206.5,53.9v-2.3
			c-5.3-0.4-9.2,1-9.2,4.5c0,2.1,1.6,3.3,4,3.3S206.5,57.6,206.5,53.9z"/>
		<path class="st0" d="M245,30.5v9.7c-8.9-0.6-12.1,2.7-12.1,13.3v12.9H221V31.3h11.9v7.1l2.5-5c1.9-2.1,4.7-3.1,6.9-3.1
			C243.4,30.3,244.2,30.4,245,30.5z"/>
		<path class="st0" d="M255.5,51.9c0,1.2,0,2.5,0.1,3.4c0.3,3.6,1.4,4.4,7,4.1v7.4c-2.3,0.4-4.5,0.6-7,0.6c-8.8,0-11.4-2.7-11.8-8.1
			c-0.1-2-0.1-3.7-0.1-5.7V38.9H238v-7.4h5.6v-9.1h11.9v9.1h7.8v7.4h-7.8V51.9z"/>
		<path class="st0" d="M294.5,41.6h-11.7c-0.5-2.4-1.7-3.8-3.8-3.8c-1.7,0-2.8,1.1-2.8,2.6c0,2,1.6,3.3,8.3,5
			c6.4,1.6,11,4.4,11,11.2c0,7.5-7.1,11-15.6,11c-9.6,0-16.1-4-17-11.9h11.7c0.7,2.7,2.8,4.5,5.3,4.5c2.1,0,3.8-0.9,3.8-2.7
			c0-2.2-2.2-3.5-8.5-5c-6.7-1.6-10.8-4.7-10.8-10.7c0-7,6.1-11.4,15.4-11.4C288.5,30.3,293.5,35.2,294.5,41.6z"/>
		<path class="st0" d="M322,23.9c0,8.1-5.7,13.9-13.9,13.9c-8.2,0-13.9-5.7-13.9-13.9s5.7-13.9,13.9-13.9
			C316.3,10.1,322,15.8,322,23.9z M318,23.9c0-5.9-4.1-10.2-9.9-10.2c-5.8,0-9.9,4.2-9.9,10.2s4.1,10.2,9.9,10.2
			C314,34.1,318,29.9,318,23.9z M313.6,27c0.2,1.8,0.5,2.8,0.9,3.6H310c-0.2-0.8-0.3-1.7-0.5-2.7c-0.2-1.3-0.7-1.9-1.9-1.9h-0.9v4.6
			h-4V16.5h5.1c0.7,0,1.2,0,1.8,0.1c3.2,0.3,4.6,1.9,4.6,4c0,1.8-1.1,3-2.6,3.4C313,24.4,313.4,25.6,313.6,27z M310,21.2
			c0-0.9-0.5-1.6-1.3-1.7c-0.5-0.1-0.7-0.1-1.3-0.1h-0.7V23h0.6c0.5,0,0.9,0,1.3-0.1C309.5,22.8,310,22,310,21.2z"/>
	</g>
</g>
</svg>
