<svg width="285" height="325" viewBox="0 0 285 325" fill="none" xmlns="http://www.w3.org/2000/svg">
<path d="M71.6893 77.9877L49.1979 83.9168C46.928 79.4155 43.9222 77.3192 39.8559 78.3911C39.1486 78.5106 38.4744 78.7773 37.8759 79.1742C37.2774 79.5711 36.7674 80.0896 36.3783 80.6971C35.9891 81.3047 35.7292 81.988 35.6149 82.7039C35.5005 83.4199 35.5343 84.153 35.7141 84.857C36.7284 88.7049 40.4621 90.4803 54.268 90.2782C67.3966 90.045 77.5988 93.2137 81.0954 106.478C84.9619 121.145 73.1758 131.546 56.7764 135.869C38.3514 140.727 23.7473 136.33 17.9015 121.345L40.3779 115.42C41.4697 117.716 43.3031 119.571 45.5735 120.675C47.8439 121.779 50.4146 122.067 52.8584 121.49C56.9247 120.418 59.6558 117.907 58.705 114.3C57.5514 109.924 52.5875 108.619 39.7787 108.977C26.0245 109.376 16.6492 105.295 13.5624 93.5854C9.98224 80.0047 19.4193 68.3665 37.5166 63.5957C54.3628 59.1547 66.6826 65.945 71.6893 77.9877Z" fill="#FEC75F"/>
<path d="M106.25 90.2651C106.862 92.5857 107.545 95.1793 108.155 96.9489C110.503 103.808 110.103 105.665 120.683 102.325L124.601 117.188C121.316 118.728 117.868 119.887 114.322 120.644C97.4775 125.085 91.0213 121.126 87.4656 110.708C86.2308 106.686 85.3912 103.501 84.3716 99.6337L76.7748 70.8163L72.0257 72.0682L68.1953 57.5382L72.9444 56.2862L68.2384 38.4346L91.0043 32.433L95.7104 50.2847L106.485 47.4443L110.303 61.9289L99.5288 64.7693L106.25 90.2651Z" fill="#FEC75F"/>
<path d="M188.904 62.3622C194.699 84.346 184.107 102.302 161.743 108.198C139.378 114.094 121.323 103.738 115.515 81.7088C109.708 59.6799 120.297 41.7727 142.677 35.8731C165.056 29.9735 183.077 40.258 188.904 62.3622ZM165.37 68.5661C161.748 54.8244 155.008 49.4462 146.823 51.6038C138.639 53.7613 135.411 61.7672 139.034 75.5089C142.657 89.2506 149.416 94.6399 157.6 92.4823C165.784 90.3248 168.965 82.2023 165.37 68.5661Z" fill="#FEC75F"/>
<path d="M104.358 168.928L114.708 208.187L91.7804 214.231L82.4594 178.873C81.8769 176.663 80.8805 172.884 79.7025 169.445C77.447 162.95 72.8487 159.989 65.963 161.804C59.0774 163.619 55.83 171.843 59.9762 187.571L68.6142 220.338L45.5973 226.406L27.2968 156.985L50.2988 150.922L53.1433 161.712L56.9903 151.521C60.874 147.507 65.8086 144.708 71.2204 143.45C85.2307 139.757 95.2892 144.342 100.268 155.956C101.933 160.178 103.3 164.513 104.358 168.928Z" fill="#FEC75F"/>
<path d="M180.016 159.628L132.07 172.267C136.252 183.411 142.12 185.317 148.693 183.584C155.266 181.852 158.388 177.447 157.887 171.931L180.704 165.917C180.819 182.537 170.237 194.685 152.573 199.342C132.929 204.521 114.052 196.976 107.673 172.777C102.383 152.712 111.853 132.726 134.806 126.675C157.759 120.624 173.947 135.073 178.632 152.845C179.216 155.079 179.678 157.343 180.016 159.628ZM129.11 157.913L152.441 151.762C149.021 144 143.971 141.087 137.791 142.717C131.61 144.346 128.413 149.013 129.11 157.913Z" fill="#FEC75F"/>
<path d="M109.415 301.563L108.525 309.509C104.332 313.962 98.962 317.097 93.0472 318.543C81.9 321.481 69.5219 317.161 66.0303 303.916C62.1648 289.253 73.4612 276.643 96.3791 270.602L100.684 269.467L100.413 268.441C99.9948 266.757 99.4681 265.101 98.8366 263.484C97.536 260.116 93.9451 257.755 89.0023 259.058C83.6884 260.459 81.5603 264.731 82.7481 270.742L61.2613 276.552C57.1407 260.44 68.7873 247.592 85.8718 243.088C107.276 237.446 117.168 245.164 121.392 257.393C122.563 260.811 123.732 264.762 124.853 269.017L129.944 288.326C131.476 294.138 133.432 299.829 135.797 305.353L113.533 311.222L109.415 301.563ZM105.329 287.087L104.136 282.561C93.6761 284.496 87.0405 289.133 88.838 295.952C89.9237 300.07 93.7086 301.541 98.2655 300.339C99.6092 299.976 100.864 299.34 101.954 298.468C103.044 297.597 103.947 296.509 104.607 295.27C105.268 294.031 105.672 292.667 105.796 291.26C105.92 289.853 105.761 288.434 105.329 287.087Z" fill="#FEC75F"/>
<path d="M170.254 220.922L175.617 240.653C157.856 244.12 150.164 252.513 155.597 273.121L162.169 298.051L138.902 304.184L120.964 236.139L144.231 230.006L147.862 243.779L150.249 232.914C151.506 230.598 153.223 228.555 155.297 226.909C157.371 225.263 159.758 224.047 162.314 223.335C164.432 222.697 168.504 221.112 170.254 220.922Z" fill="#FEC75F"/>
<path d="M269.025 218.202L246.533 224.131C244.268 219.646 241.277 217.546 237.211 218.618C236.504 218.735 235.829 219 235.23 219.395C234.631 219.79 234.121 220.307 233.731 220.913C233.341 221.52 233.081 222.202 232.966 222.917C232.851 223.632 232.885 224.365 233.065 225.068C234.083 228.93 237.742 230.724 251.622 230.502C264.755 230.348 274.952 233.436 278.444 246.682C282.314 261.361 270.512 271.765 254.128 276.084C235.703 280.941 221.08 276.535 215.254 261.565L237.746 255.636C238.834 257.931 240.664 259.785 242.932 260.89C245.2 261.995 247.769 262.284 250.211 261.708C254.277 260.636 257.008 258.125 256.058 254.519C254.904 250.144 249.94 248.839 237.128 249.183C223.354 249.507 214.018 245.514 210.928 233.792C207.348 220.214 216.771 208.581 234.883 203.807C251.729 199.366 263.967 206.208 269.025 218.202Z" fill="#FEC75F"/>
<path d="M201.526 257.388C202.138 259.709 202.822 262.302 203.431 264.072C205.777 270.931 205.395 272.784 215.93 269.455L219.845 284.304C216.568 285.854 213.126 287.017 209.583 287.771C192.784 292.2 186.338 288.222 182.788 277.819C181.477 273.866 180.625 270.635 179.602 266.753L172.005 237.935L167.269 239.184L163.442 224.669L168.179 223.42L163.473 205.569L186.281 199.556L190.987 217.408L201.732 214.575L205.55 229.06L194.805 231.892L201.526 257.388Z" fill="#FEC75F"/>
</svg>
