<svg width="614" height="614" viewBox="0 0 614 614" fill="none" xmlns="http://www.w3.org/2000/svg">
<path d="M424.897 203.419C422.452 202.156 420.072 200.772 417.765 199.271C411.057 194.84 404.907 189.619 399.448 183.721C385.787 168.103 380.685 152.259 378.806 141.166H378.881C377.311 131.958 377.96 126 378.059 126H315.838V366.401C315.838 369.629 315.838 372.819 315.702 375.971C315.702 376.363 315.665 376.725 315.642 377.148C315.642 377.321 315.642 377.502 315.604 377.683V377.819C314.949 386.444 312.181 394.777 307.546 402.083C302.911 409.389 296.55 415.445 289.023 419.718C281.178 424.178 272.305 426.517 263.279 426.505C234.289 426.505 210.795 402.886 210.795 373.716C210.795 344.547 234.289 320.927 263.279 320.927C268.766 320.922 274.22 321.785 279.438 323.484L279.513 260.182C263.674 258.138 247.583 259.396 232.254 263.876C216.926 268.357 202.694 275.963 190.455 286.215C179.73 295.525 170.714 306.634 163.812 319.042C161.186 323.567 151.276 341.749 150.076 371.258C149.322 388.007 154.356 405.36 156.756 412.531V412.682C158.265 416.905 164.114 431.317 173.647 443.466C181.333 453.211 190.414 461.772 200.598 468.872V468.721L200.749 468.872C230.87 489.324 264.267 487.982 264.267 487.982C270.049 487.748 289.415 487.982 311.408 477.567C335.801 466.022 349.688 448.82 349.688 448.82C358.56 438.542 365.614 426.829 370.549 414.183C376.179 399.394 378.059 381.657 378.059 374.568V247.03C378.813 247.483 388.866 254.127 388.866 254.127C388.866 254.127 403.35 263.402 425.946 269.443C442.158 273.741 464 274.646 464 274.646V212.928C456.347 213.758 440.807 211.345 424.897 203.419Z" fill="#0D0D0D"/>
<circle cx="307" cy="307" r="302" stroke="#0D0D0D" stroke-width="10"/>
</svg>
