<svg width="43" height="23" viewBox="0 0 43 23" fill="none" xmlns="http://www.w3.org/2000/svg">
<rect width="43" height="23" fill="white"/>
<path fill-rule="evenodd" clip-rule="evenodd" d="M21.6934 7.00284L19.7751 16.0212H17.455L19.374 7.00284H21.6934ZM31.4536 12.8259L32.6748 9.43971L33.3777 12.8259H31.4536ZM34.0422 16.0212H36.1878L34.3149 7.00284H32.3349C31.8895 7.00284 31.514 7.26308 31.3473 7.66422L27.8665 16.0212H30.3019L30.7858 14.674H33.7619L34.0422 16.0212ZM27.987 13.0767C27.9974 10.6967 24.7143 10.5652 24.737 9.50187C24.7441 9.17853 25.0504 8.83474 25.721 8.74665C26.0529 8.70308 26.9696 8.66926 28.008 9.14993L28.4157 7.23782C27.857 7.03385 27.1392 6.83789 26.2452 6.83789C23.9524 6.83789 22.3384 8.06388 22.3255 9.81893C22.3101 11.1178 23.4773 11.8416 24.3566 12.2734C25.2601 12.7153 25.5631 12.999 25.5598 13.3941C25.553 13.9995 24.8389 14.2663 24.1712 14.2768C23.0049 14.2951 22.328 13.9598 21.7886 13.707L21.3686 15.6833C21.9101 15.9334 22.9107 16.1515 23.9483 16.1622C26.3856 16.1622 27.9795 14.952 27.987 13.0767ZM18.3785 7.00284L14.6199 16.0212H12.1678L10.3181 8.82391C10.2058 8.38081 10.1085 8.21813 9.76702 8.0318C9.20931 7.72718 8.28849 7.44166 7.47852 7.26442L7.53314 7.00284H11.4807C11.9836 7.00284 12.4362 7.33927 12.5505 7.9222L13.5274 13.1411L15.9418 7.00284H18.3785Z" fill="url(#paint0_linear_1889_55)"/>
<defs>
<linearGradient id="paint0_linear_1889_55" x1="7.47852" y1="11.5001" x2="36.1878" y2="11.5001" gradientUnits="userSpaceOnUse">
<stop stop-color="#231E5D"/>
<stop offset="1" stop-color="#074EA2"/>
</linearGradient>
</defs>
</svg>
