<svg width="614" height="614" viewBox="0 0 614 614" fill="none" xmlns="http://www.w3.org/2000/svg">
<path d="M473.828 236.084C473.828 206.319 451.974 182.375 424.971 182.375C388.393 180.661 351.09 180 312.967 180H301.083C263.053 180 225.684 180.661 189.107 182.381C162.169 182.381 140.315 206.458 140.315 236.222C138.664 259.763 137.964 283.31 138.004 306.858C137.938 330.405 138.686 353.974 140.249 377.566C140.249 407.33 162.103 431.473 189.041 431.473C227.466 433.259 266.883 434.053 306.959 433.986C347.102 434.119 386.408 433.281 424.878 431.473C451.882 431.473 473.736 407.33 473.736 377.566C475.32 353.952 476.047 330.405 475.981 306.792C476.13 283.244 475.413 259.675 473.828 236.084ZM274.674 371.745V241.772L370.408 306.725L274.674 371.745Z" fill="#0D0D0D"/>
<circle cx="307" cy="307" r="302" stroke="#0D0D0D" stroke-width="10"/>
</svg>
